<svg xmlns="http://www.w3.org/2000/svg" viewBox="0 0 60 59.4"><defs><style>.cls-1{fill:#fff;}</style></defs><title>アセット 19</title><g id="レイヤー_2" data-name="レイヤー 2"><g id="デザイン"><ellipse cx="30" cy="29.7" rx="30" ry="29.7"/><path class="cls-1" d="M37.64,47.34H22.36A10.72,10.72,0,0,1,11.6,36.69V21.56A10.72,10.72,0,0,1,22.36,10.91H37.64A10.72,10.72,0,0,1,48.4,21.56V36.69A10.72,10.72,0,0,1,37.64,47.34Zm-15.28-33A7.3,7.3,0,0,0,15,21.56V36.69a7.3,7.3,0,0,0,7.33,7.26H37.64A7.3,7.3,0,0,0,45,36.69V21.56a7.3,7.3,0,0,0-7.33-7.26Z"/><ellipse class="cls-1" cx="39.83" cy="19.41" rx="2.29" ry="2.27"/><path class="cls-1" d="M30,38.54a9.42,9.42,0,1,1,9.51-9.42A9.48,9.48,0,0,1,30,38.54Zm0-15.44a6,6,0,1,0,6.08,6A6.06,6.06,0,0,0,30,23.11Z"/></g></g></svg>