<svg xmlns="http://www.w3.org/2000/svg" viewBox="0 0 60 59.4"><defs><style>.cls-1{fill:#fff;}</style></defs><title>アセット 20</title><g id="レイヤー_2" data-name="レイヤー 2"><g id="デザイン"><ellipse cx="30" cy="29.7" rx="30" ry="29.7"/><path class="cls-1" d="M44.43,38.73c-2.54-1.23-2.45-4.37-2.11-7.46a15.81,15.81,0,0,0-.44-7.3c-.69-2.29-2-3.58-2-6V12c0-2.24-1.06-3-2-3-3,0-4,5.09-7.91,5.09h0C26,14,25.06,8.93,22.08,8.93c-.91,0-2,.79-2,3v6c0,2.47-1.28,3.75-2,6a15.81,15.81,0,0,0-.45,7.3c.34,3.09.44,6.22-2.1,7.46-2,1-3.26,2.6-2.35,4,1.15,1.76,3.31-.26,4.37,0s-.06,1.83,1.68,1.83c.91,0,1.15-2.75,2-2.54.58.14.72,1.85.14,3.18-.26.6-2.59,2.07-2.3,3.57s1.54,1.76,3.31,1.76h4.65a2.41,2.41,0,0,0,2.26-1.84c0-.72-1-2.34.64-2.34h0c1.65,0,.64,1.62.64,2.34a2.41,2.41,0,0,0,2.26,1.84h4.65c1.78,0,3-.25,3.31-1.76s-2-2.94-2.3-3.54c-.58-1.33-.43-3.05.14-3.2.87-.21,1.1,2.53,2,2.53,1.75,0,.48-1.59,1.68-1.83s3.21,1.8,4.37,0C47.69,41.33,46.41,39.7,44.43,38.73Z"/><ellipse cx="36.4" cy="22.32" rx="1.16" ry="1.15"/><ellipse cx="23.6" cy="22.32" rx="1.16" ry="1.15"/><ellipse cx="30" cy="39.46" rx="5.31" ry="5.25"/><path d="M30,23.26c-3.34,0-7.93,2-7.93,5.18,0,2.52,1.6,3.46,3.64,3.46S28.4,29.67,30,29.67s2.25,2.23,4.29,2.23,3.64-.94,3.64-3.46C37.93,25.28,33.35,23.26,30,23.26Zm0,4.61c-1.45,0-2.62-.87-2.62-1.94S28.56,24,30,24s2.62.87,2.62,1.94S31.45,27.87,30,27.87Z"/></g></g></svg>