<svg xmlns="http://www.w3.org/2000/svg" viewBox="0 0 76.88 43.12"><title>アセット 2</title><g id="レイヤー_2" data-name="レイヤー 2"><g id="デザイン"><path d="M13.85,12.47C21.9,4.85,31.08.87,35.41.87c3.12,0,4.94,1.81,4.94,4.41,0,5.89-4.85,15.07-15.33,25.8-8,8.31-15.24,12-19.48,12C2,43.12,0,41,0,37.23,0,30.82,4.5,21.3,13.85,12.47Zm1.91,3.89C6.23,27,2.16,35,2.16,38.44c0,1.82,1.22,3.12,3.38,3.12,3.9,0,10.48-3.73,18.18-11.6C34,19.48,38.61,10,38.61,6.06c0-2.25-1.21-3.38-3.46-3.38C31,2.68,24.07,7,15.76,16.36Z"/><path d="M76.88.43C65.8,15.15,55.84,29,47,42.16H40.69C49.61,31,59.83,18.61,71.86,4.59,62.51,11.43,52,17.84,40.52,24.67l-.69-1.73C58.7,12,70.39,4,75.32,0Z"/></g></g></svg>