<svg xmlns="http://www.w3.org/2000/svg" viewBox="0 0 74.37 42.25"><title>アセット 3</title><g id="レイヤー_2" data-name="レイヤー 2"><g id="デザイン"><path d="M13.85,11.6C21.9,4,31.08,0,35.41,0c3.12,0,4.94,1.82,4.94,4.42,0,5.88-4.85,15.06-15.33,25.8-8,8.31-15.24,12-19.48,12C2,42.25,0,40.09,0,36.36,0,30,4.5,20.43,13.85,11.6Zm1.91,3.9C6.23,26.15,2.16,34.11,2.16,37.57c0,1.82,1.22,3.12,3.38,3.12,3.9,0,10.48-3.72,18.18-11.6C34,18.61,38.61,9.18,38.61,5.19c0-2.25-1.21-3.37-3.46-3.37C31,1.82,24.07,6.15,15.76,15.5Z"/><path d="M39.91,35.76c5.54,0,8.57,3.11,12,3.11,2.77,0,5.2-2,7.88-5.88l1.3.6c-3.21,5.72-7.27,8.57-11.34,8.57-4.51,0-8.66-3.46-12.82-3.46a12.91,12.91,0,0,0-7.18,2.51l-1-1.47c11.61-8.92,22-13.68,29.35-18.36,9-5.8,13.6-13.24,13.6-16.53,0-1.91-1.48-3.12-4.42-3.12-2.68,0-7.62,1.82-11.86,5.72s-6.23,7.35-6.23,10a2,2,0,0,0,2.25,1.82c2.94,0,8-3.72,10.65-10.39l1.3.26c-2.43,7.27-8.06,11.78-12,11.78-2.34,0-3.81-1.56-3.81-4.16,0-3.38,2.34-7.88,6.84-11.43C58.61,1.9,63.46.09,67.27.09c4.5,0,7.1,2.33,7.1,5.88,0,7.1-5.28,13.25-15.93,18.79C50.91,28.66,43.12,31.51,36.71,36,38.35,35.84,39.48,35.76,39.91,35.76Z"/></g></g></svg>