<svg xmlns="http://www.w3.org/2000/svg" viewBox="0 0 73.42 42.51"><title>アセット 4</title><g id="レイヤー_2" data-name="レイヤー 2"><g id="デザイン"><path d="M13.85,11.6C21.9,4,31.08,0,35.41,0c3.12,0,4.94,1.82,4.94,4.42,0,5.88-4.85,15.06-15.33,25.8-8,8.31-15.24,12-19.48,12C2,42.25,0,40.09,0,36.36,0,30,4.5,20.43,13.85,11.6Zm1.91,3.9C6.23,26.15,2.16,34.11,2.16,37.57c0,1.82,1.22,3.12,3.38,3.12,3.9,0,10.48-3.72,18.18-11.6C34,18.61,38.61,9.18,38.61,5.19c0-2.25-1.21-3.37-3.46-3.37C31,1.82,24.07,6.15,15.76,15.5Z"/><path d="M63,24.16c0,4-2.86,8.39-8.49,12.38s-12.2,6-16.27,6S32,40.43,32,38a3.45,3.45,0,0,1,3.21-3.72,2.28,2.28,0,0,1,2.42,2.25c0,2.51-2.77,1.9-2.77,2.77s1.21,1.55,3.55,1.55c3.2,0,8.83-2.33,14.37-7.61,4.85-4.68,7.1-9,7.1-10.57,0-1.3-.95-2-2.6-2-1.9,0-4.58,1.21-8.57,3l-.86-1.3c15.24-6.32,22.51-13,22.51-17.83,0-1.82-1.39-2.86-4-2.86-6.32,0-13.68,6.58-13.68,10A2,2,0,0,0,55,13.77c1.82,0,5.37-2,8-6.32L64.07,8c-2.34,4.76-6.41,7.53-9.7,7.53A3.28,3.28,0,0,1,50.82,12C50.82,7,58.53,0,67,0c3.81,0,6.41,2.08,6.41,5.19,0,4.68-4.94,10.05-14.37,13.77C61.9,19.65,63,21.13,63,24.16Z"/></g></g></svg>