<svg xmlns="http://www.w3.org/2000/svg" viewBox="0 0 76.19 42.25"><title>アセット 5</title><g id="レイヤー_2" data-name="レイヤー 2"><g id="デザイン"><path d="M13.85,11.6C21.9,4,31.08,0,35.41,0c3.12,0,4.94,1.82,4.94,4.42,0,5.88-4.85,15.06-15.33,25.8-8,8.31-15.24,12-19.48,12C2,42.25,0,40.09,0,36.36,0,30,4.5,20.43,13.85,11.6Zm1.91,3.9C6.23,26.15,2.16,34.11,2.16,37.57c0,1.82,1.22,3.12,3.38,3.12,3.9,0,10.48-3.72,18.18-11.6C34,18.61,38.61,9.18,38.61,5.19c0-2.25-1.21-3.37-3.46-3.37C31,1.82,24.07,6.15,15.76,15.5Z"/><path d="M76.19.43C66,9.09,53.68,18.35,39.48,29.09A73.1,73.1,0,0,1,47,28.66a50.72,50.72,0,0,1,8.57.78q4.81-5.21,10.13-10.65h2.08Q63.38,24.12,59,29.7a21.26,21.26,0,0,0,2.34.17,18.44,18.44,0,0,0,4.07-.61l.34,1.48a15.17,15.17,0,0,1-5.62.86c-.44,0-1.13,0-2.17-.09C55.5,34.8,53.16,38.09,51,41.3H44.67c3-3.55,6-6.93,9.1-10.22a36.2,36.2,0,0,0-7.45-.69c-4.42,0-8.14.6-11.34,2.34l-1-1.56A352,352,0,0,0,69.7.43Z"/></g></g></svg>