<svg xmlns="http://www.w3.org/2000/svg" viewBox="0 0 76.45 42.86"><title>アセット 6</title><g id="レイヤー_2" data-name="レイヤー 2"><g id="デザイン"><path d="M13.85,12.12C21.9,4.5,31.08.52,35.41.52c3.12,0,4.94,1.82,4.94,4.42C40.35,10.82,35.5,20,25,30.74c-8,8.31-15.24,12-19.48,12C2,42.77,0,40.61,0,36.88,0,30.48,4.5,21,13.85,12.12ZM15.76,16C6.23,26.67,2.16,34.63,2.16,38.09c0,1.82,1.22,3.12,3.38,3.12,3.9,0,10.48-3.72,18.18-11.6C34,19.13,38.61,9.7,38.61,5.71c0-2.25-1.21-3.37-3.46-3.37C31,2.34,24.07,6.67,15.76,16Z"/><path d="M76.45,1.21a21.21,21.21,0,0,1-12,3.47,23.23,23.23,0,0,1-4-.44l-9.35,12c3.64-2.43,6.67-3.64,9-3.64,3.46,0,6.06,2.6,6.06,6.58,0,5.11-3.55,11.26-10.48,16.8-5.71,4.5-11.6,6.84-16.45,6.84C35.32,42.86,33,41,33,38.18c0-2.16,1.47-3.72,3.11-3.72a2.19,2.19,0,0,1,2.43,2.25c0,2.34-2.86,2.08-2.86,2.94,0,.52,1.39,1.47,3.9,1.47,3.46,0,8.39-2.25,13.07-6.75,7.27-7,10.48-13.94,10.48-17,0-1.91-1.22-3-3.38-3-2.86,0-7.71,2.51-13.51,8.05l-1.3-1L61,1a26.18,26.18,0,0,0,6.49.87A21.63,21.63,0,0,0,75.84,0Z"/></g></g></svg>