<svg xmlns="http://www.w3.org/2000/svg" viewBox="0 0 78.96 42.34"><title>アセット 14</title><g id="レイヤー_2" data-name="レイヤー 2"><g id="デザイン"><path d="M13.85,11.6C21.9,4,31.08,0,35.41,0c3.12,0,4.94,1.82,4.94,4.42,0,5.88-4.85,15.06-15.33,25.8-8,8.31-15.24,12-19.48,12C2,42.25,0,40.09,0,36.36,0,30,4.5,20.43,13.85,11.6Zm1.91,3.9C6.23,26.15,2.16,34.11,2.16,37.57c0,1.82,1.22,3.12,3.38,3.12,3.9,0,10.48-3.72,18.18-11.6C34,18.61,38.61,9.18,38.61,5.19c0-2.25-1.21-3.37-3.46-3.37C31,1.82,24.07,6.15,15.76,15.5Z"/><path d="M61,15.41c3.11,0,4.85,2,4.85,5.63S63.63,29.7,59,34.29C53.68,39.57,47.27,42.34,43,42.34a5.32,5.32,0,0,1-5.72-5.72c0-4.67,3.21-11.95,10.22-20C57.31,5.45,67.18.09,73.5.09c3.38,0,5.46,1.56,5.46,4A3.52,3.52,0,0,1,75.5,7.71c-1.39,0-2.25-.78-2.25-1.91,0-2.42,3-1.56,3-3.12,0-.43-.87-1-2.52-1C68,1.65,58,8.48,47.19,22.86,53.07,17.84,57.83,15.41,61,15.41Zm-4.68,16c4.94-5.72,7.1-10,7.1-12,0-1.47-1-2.25-2.6-2.25-2.59,0-7.18,2.08-12.55,6.84-5.71,5-8.66,10.74-8.66,13.51A3.08,3.08,0,0,0,43,40.61C46.23,40.61,51,37.66,56.36,31.43Z"/></g></g></svg>