<svg xmlns="http://www.w3.org/2000/svg" viewBox="0 0 79.48 51.86"><title>アセット 8</title><g id="レイヤー_2" data-name="レイヤー 2"><g id="デザイン"><path d="M13.85,15.5c8-7.62,17.23-11.6,21.56-11.6,3.12,0,4.94,1.81,4.94,4.41,0,5.89-4.85,15.07-15.33,25.8-8,8.31-15.24,12-19.48,12C2,46.15,0,44,0,40.26,0,33.85,4.5,24.33,13.85,15.5Zm1.91,3.89C6.23,30,2.16,38,2.16,41.47c0,1.82,1.22,3.12,3.38,3.12,3.9,0,10.48-3.73,18.18-11.6C34,22.51,38.61,13.07,38.61,9.09c0-2.25-1.21-3.38-3.46-3.38C31,5.71,24.07,10,15.76,19.39Z"/><path d="M60,0,55.93,4.85A18.15,18.15,0,0,1,61.38,4c4,0,7.28,1.82,10.13,1.82,2.25,0,4.07-1.12,6-3.38h2C64.93,17.84,50.65,34,36.54,51.86h-7.1L72.81,7.36a16,16,0,0,1-6.06,1.3c-4.33,0-6.92-2.25-9.44-2.25-2,0-4.41,1.47-6.58,4.33H48.66L57.57,0Z"/></g></g></svg>