<svg xmlns="http://www.w3.org/2000/svg" viewBox="0 0 75.24 42.34"><title>アセット 15</title><g id="レイヤー_2" data-name="レイヤー 2"><g id="デザイン"><path d="M13.85,11.6C21.9,4,31.08,0,35.41,0c3.12,0,4.94,1.82,4.94,4.42,0,5.88-4.85,15.06-15.33,25.8-8,8.31-15.24,12-19.48,12C2,42.25,0,40.09,0,36.36,0,30,4.5,20.43,13.85,11.6Zm1.91,3.9C6.23,26.15,2.16,34.11,2.16,37.57c0,1.82,1.22,3.12,3.38,3.12,3.9,0,10.48-3.72,18.18-11.6C34,18.61,38.61,9.18,38.61,5.19c0-2.25-1.21-3.37-3.46-3.37C31,1.82,24.07,6.15,15.76,15.5Z"/><path d="M62.08,26c0,8.23-9.53,16.37-18.27,16.37-5.54,0-8.57-2.77-8.57-7.19,0-6.41,6.4-11.95,19.22-16.1a14,14,0,0,1-1.39-5.54C53.07,6.75,60.09.09,68,.09c4.77,0,7.28,2.16,7.28,5.8,0,5.28-5.2,9.87-15.5,13.07C61.12,21.73,62.08,23.9,62.08,26ZM37.66,35.06c0,3.29,2.43,5.72,6.41,5.72C51.43,40.78,58,34.11,58,28c0-2.16-1-4.5-2.77-7.35C43.64,24,37.66,29.87,37.66,35.06ZM72.81,5.89c0-2.51-1.82-4.33-5-4.33-5.45,0-10.73,4.59-10.73,9.61A13.84,13.84,0,0,0,59,17.49C68.31,14.46,72.81,11.17,72.81,5.89Z"/></g></g></svg>