<svg xmlns="http://www.w3.org/2000/svg" viewBox="0 0 74.02 42.34"><title>アセット 10</title><g id="レイヤー_2" data-name="レイヤー 2"><g id="デザイン"><path d="M13.85,11.6C21.9,4,31.08,0,35.41,0c3.12,0,4.94,1.82,4.94,4.42,0,5.88-4.85,15.06-15.33,25.8-8,8.31-15.24,12-19.48,12C2,42.25,0,40.09,0,36.36,0,30,4.5,20.43,13.85,11.6Zm1.91,3.9C6.23,26.15,2.16,34.11,2.16,37.57c0,1.82,1.22,3.12,3.38,3.12,3.9,0,10.48-3.72,18.18-11.6C34,18.61,38.61,9.18,38.61,5.19c0-2.25-1.21-3.37-3.46-3.37C31,1.82,24.07,6.15,15.76,15.5Z"/><path d="M50.3,26.93c-3,0-4.93-1.91-4.93-5.29,0-4.06,2.33-8.91,6.92-13.5,5.37-5.28,11.78-8,16-8C71.86.09,74,2.25,74,5.71c0,4.68-3.29,12-10.3,20.09-9.78,11.26-19.65,16.54-26,16.54-3.38,0-5.46-1.56-5.46-4a3.65,3.65,0,0,1,3.38-3.72c1.56,0,2.34.78,2.34,2.08,0,2.25-3,1.47-3,2.94,0,.44.86,1,2.51,1,5.71,0,15.67-6.84,26.58-21.21C58.18,24.5,53.59,26.93,50.3,26.93Zm4.59-16c-4.93,5.71-7,10-7,12,0,1.48.86,2.25,2.51,2.25,2.51,0,7.18-2.07,12.55-6.84,5.8-5.1,8.66-10.73,8.66-13.5,0-1.91-1.3-3.12-3.38-3.12C65,1.73,60.26,4.68,54.89,10.91Z"/></g></g></svg>