<svg xmlns="http://www.w3.org/2000/svg" viewBox="0 0 70.65 43.12"><title>アセット 11</title><g id="レイヤー_2" data-name="レイヤー 2"><g id="デザイン"><path d="M37.06.43C26,15.15,16,29,7.19,42.16H.87C9.78,31,20,18.61,32,4.59,22.68,11.43,12.21,17.84.69,24.67L0,22.94C18.87,12,30.56,4,35.5,0Z"/><path d="M44.15,12.47C52.21,4.85,61.38.87,65.71.87c3.12,0,4.94,1.81,4.94,4.41,0,5.89-4.85,15.07-15.33,25.8-8,8.31-15.23,12-19.48,12-3.55,0-5.54-2.17-5.54-5.89C30.3,30.82,34.8,21.3,44.15,12.47Zm1.91,3.89C36.54,27,32.47,35,32.47,38.44a3,3,0,0,0,3.37,3.12c3.9,0,10.48-3.73,18.18-11.6C64.33,19.48,68.92,10,68.92,6.06c0-2.25-1.22-3.38-3.47-3.38C61.3,2.68,54.37,7,46.06,16.36Z"/></g></g></svg>