<svg xmlns="http://www.w3.org/2000/svg" viewBox="0 0 69.61 43.03"><title>アセット 13</title><g id="レイヤー_2" data-name="レイヤー 2"><g id="デザイン"><path d="M37.06.43C26,15.15,16,29,7.19,42.16H.87C9.78,31,20,18.61,32,4.59,22.68,11.43,12.21,17.83.69,24.67L0,22.94C18.87,12,30.56,4,35.5,0Z"/><path d="M35.15,36.62c5.54,0,8.57,3.12,12,3.12,2.77,0,5.19-2,7.88-5.89l1.3.61C53.07,40.17,49,43,44.93,43c-4.5,0-8.65-3.46-12.81-3.46a12.89,12.89,0,0,0-7.19,2.51L24,40.61c11.6-8.92,22-13.68,29.35-18.36,9-5.8,13.59-13.25,13.59-16.54,0-1.9-1.47-3.11-4.41-3.11-2.68,0-7.62,1.82-11.86,5.71s-6.24,7.36-6.24,10a2,2,0,0,0,2.26,1.82c2.94,0,8-3.73,10.64-10.39l1.3.26c-2.42,7.27-8,11.77-12,11.77-2.34,0-3.81-1.56-3.81-4.15,0-3.38,2.34-7.88,6.84-11.43C53.85,2.77,58.7,1,62.51,1c4.5,0,7.1,2.34,7.1,5.89,0,7.1-5.28,13.25-15.93,18.79C46.15,29.52,38.35,32.38,32,36.88,33.59,36.71,34.72,36.62,35.15,36.62Z"/></g></g></svg>