<svg xmlns="http://www.w3.org/2000/svg" viewBox="0 0 71.4 42.15"><title>アセット 2</title><g id="レイヤー_2" data-name="レイヤー 2"><g id="レイヤー_1-2" data-name="レイヤー 1"><path d="M35.51,0l1.56.42Q28.41,11.88,21,22.26T7.19,42.15H.89q7.19-9,14.94-18.39T32,4.57q-5.62,4.1-12.7,8.67T.72,24.65L0,22.91Q11.84,16.06,21.26,10T35.51,0Z"/><path d="M64.93,1.27H71.4Q61.51,9.68,36.06,28.92l-1.35,1q2.11-.21,4-.32t3.55-.11q2,0,4.14.19t4.4.57l5-5.24q2.54-2.66,5.2-5.37H63Q60.79,22.28,58.59,25t-4.4,5.54h.17a19.31,19.31,0,0,0,2.16.17,11.52,11.52,0,0,0,1.73-.15q1-.15,2.33-.49L61,31.58a11.89,11.89,0,0,1-2.47.66,19.92,19.92,0,0,1-3.19.23l-1.12,0-1-.06q-1.9,2.58-3.64,5t-3.3,4.76h-6.3q2.87-3.38,5-5.77T49,31.92a34,34,0,0,0-3.51-.51q-1.82-.17-3.93-.17a31.63,31.63,0,0,0-6.38.57,18.81,18.81,0,0,0-5,1.75l-1-1.56q8.62-6.38,17.65-14.12T64.93,1.27Z"/></g></g></svg>