<svg xmlns="http://www.w3.org/2000/svg" viewBox="0 0 71.66 43.2"><title>アセット 3</title><g id="レイヤー_2" data-name="レイヤー 2"><g id="レイヤー_1-2" data-name="レイヤー 1"><path d="M35.51,0l1.56.42Q28.41,11.88,21,22.26T7.19,42.15H.89q7.19-9,14.94-18.39T32,4.57q-5.62,4.1-12.7,8.67T.72,24.65L0,22.91Q11.84,16.06,21.26,10T35.51,0Z"/><path d="M71.06.34l.59,1.18A17.42,17.42,0,0,1,66.2,4.08,23.64,23.64,0,0,1,59.65,5Q58.8,5,57.9,4.9t-2.26-.3l-9.34,12a27.17,27.17,0,0,1,5-2.73,11.1,11.1,0,0,1,4-.91,5.75,5.75,0,0,1,4.38,1.82,6.62,6.62,0,0,1,1.71,4.73,15.94,15.94,0,0,1-2.75,8.41,34.36,34.36,0,0,1-7.74,8.41,36.14,36.14,0,0,1-8.46,5.07,20.89,20.89,0,0,1-8,1.78,7.35,7.35,0,0,1-4.57-1.29,4.07,4.07,0,0,1-1.69-3.4,3.91,3.91,0,0,1,.93-2.64,2.82,2.82,0,0,1,2.2-1.08,2.47,2.47,0,0,1,1.75.61A2.12,2.12,0,0,1,33.74,37a2.17,2.17,0,0,1-1.42,2q-1.42.68-1.42.93,0,.51,1.14,1a7,7,0,0,0,2.75.49,14.09,14.09,0,0,0,6.3-1.8,28.16,28.16,0,0,0,6.76-5,46,46,0,0,0,7.59-9.34q2.89-4.82,2.9-7.74a2.72,2.72,0,0,0-.87-2.16A3.7,3.7,0,0,0,55,14.71,12.46,12.46,0,0,0,49,16.83a42.4,42.4,0,0,0-7.55,5.92l-1.31-1,16-20.46a27.67,27.67,0,0,0,3.36.68,23.38,23.38,0,0,0,3.11.21,19.4,19.4,0,0,0,4.18-.47A24.48,24.48,0,0,0,71.06.34Z"/></g></g></svg>