<svg xmlns="http://www.w3.org/2000/svg" viewBox="0 0 74.19 43.2"><title>アセット 4</title><g id="レイヤー_2" data-name="レイヤー 2"><g id="レイヤー_1-2" data-name="レイヤー 1"><path d="M35.51,0l1.56.42Q28.41,11.88,21,22.26T7.19,42.15H.89q7.19-9,14.94-18.39T32,4.57q-5.62,4.1-12.7,8.67T.72,24.65L0,22.91Q11.84,16.06,21.26,10T35.51,0Z"/><path d="M42.4,23.72a45.75,45.75,0,0,1,7.82-5.54,13.39,13.39,0,0,1,6-1.9,4.54,4.54,0,0,1,3.59,1.44,6.14,6.14,0,0,1,1.27,4.18,14.35,14.35,0,0,1-1.84,6.51,26.36,26.36,0,0,1-5.09,6.72A31,31,0,0,1,46.12,41a18,18,0,0,1-7.86,2.2,5.58,5.58,0,0,1-4.16-1.56,5.7,5.7,0,0,1-1.54-4.18,20.89,20.89,0,0,1,2.68-9.13,54.91,54.91,0,0,1,7.5-10.86A64.42,64.42,0,0,1,56.5,5.35Q63.5.93,68.74.93a6.61,6.61,0,0,1,4,1.08,3.4,3.4,0,0,1,1.48,2.9,3.57,3.57,0,0,1-1,2.6,3.31,3.31,0,0,1-2.45,1A2.47,2.47,0,0,1,69.1,8a1.72,1.72,0,0,1-.61-1.4A2,2,0,0,1,70,4.76q1.5-.57,1.5-1.21,0-.42-.72-.74A4.41,4.41,0,0,0,69,2.49q-4.82,0-12,5.67A84.32,84.32,0,0,0,42.4,23.72ZM38.26,41.47q2.58,0,6.07-2.41a39.74,39.74,0,0,0,7.25-6.76,47.6,47.6,0,0,0,5.22-7.08q1.88-3.23,1.88-5A2.07,2.07,0,0,0,58,18.58,2.87,2.87,0,0,0,56.1,18a12.58,12.58,0,0,0-5.6,1.8,36.33,36.33,0,0,0-7,5A32.94,32.94,0,0,0,37.31,32q-2.43,3.87-2.43,6.32a3,3,0,0,0,.93,2.26A3.45,3.45,0,0,0,38.26,41.47Z"/></g></g></svg>