<svg xmlns="http://www.w3.org/2000/svg" viewBox="0 0 74.7 51.87"><title>アセット 5</title><g id="レイヤー_2" data-name="レイヤー 2"><g id="レイヤー_1-2" data-name="レイヤー 1"><path d="M35.51,3l1.56.42Q28.41,14.92,21,25.3T7.19,45.19H.89q7.19-9,14.94-18.39T32,7.61q-5.62,4.1-12.7,8.67T.72,27.69L0,26Q11.84,19.11,21.26,13T35.51,3Z"/><path d="M52.8,0h2.41L51.15,4.86a18.21,18.21,0,0,1,2.79-.68A17.13,17.13,0,0,1,56.61,4a21.86,21.86,0,0,1,5.5.91,21.2,21.2,0,0,0,4.65.91,6.14,6.14,0,0,0,3-.8,10.81,10.81,0,0,0,2.92-2.58h2q-12,12.73-22.6,24.94T31.75,51.87h-7.1L68,7.36a18.51,18.51,0,0,1-3.13,1A13.93,13.93,0,0,1,62,8.67a15.48,15.48,0,0,1-5.39-1.14,14.87,14.87,0,0,0-4-1.14,6,6,0,0,0-3.3,1.14A13.58,13.58,0,0,0,46,10.74H43.88Z"/></g></g></svg>