<svg xmlns="http://www.w3.org/2000/svg" viewBox="0 0 70.47 43.2"><title>アセット 6</title><g id="レイヤー_2" data-name="レイヤー 2"><g id="レイヤー_1-2" data-name="レイヤー 1"><path d="M35.51,0l1.56.42Q28.41,11.88,21,22.26T7.19,42.15H.89q7.19-9,14.94-18.39T32,4.57q-5.62,4.1-12.7,8.67T.72,24.65L0,22.91Q11.84,16.06,21.26,10T35.51,0Z"/><path d="M55,19.83a32.2,32.2,0,0,1,1.84,4.23,9.26,9.26,0,0,1,.49,2.79q0,6-5.79,11.2T39,43.2a9.45,9.45,0,0,1-6.3-1.9A6.56,6.56,0,0,1,30.48,36q0-4.9,4.86-9t14.33-7.12a19.36,19.36,0,0,1-1.06-3,10.48,10.48,0,0,1-.34-2.54q0-5.16,4.54-9.3A15,15,0,0,1,63.2.93a8.47,8.47,0,0,1,5.39,1.5,5.17,5.17,0,0,1,1.88,4.29q0,4.06-4,7.4T55,19.83Zm-4.48,1.65a34.86,34.86,0,0,0-12.85,6.28q-4.73,4-4.73,8.18a5.29,5.29,0,0,0,1.75,4.12,6.7,6.7,0,0,0,4.67,1.58,13.84,13.84,0,0,0,9.66-4q4.33-4,4.33-8.77a9,9,0,0,0-.63-3.11A25.25,25.25,0,0,0,50.48,21.47Zm3.72-3.13q7.4-2.41,10.61-5.14A8.26,8.26,0,0,0,68,6.72a4,4,0,0,0-1.35-3.13A5.33,5.33,0,0,0,63,2.41a10.89,10.89,0,0,0-7.44,2.94A8.75,8.75,0,0,0,52.29,12a10.16,10.16,0,0,0,.44,2.9A19.61,19.61,0,0,0,54.2,18.35Z"/></g></g></svg>