<svg xmlns="http://www.w3.org/2000/svg" viewBox="0 0 69.25 43.2"><title>アセット 7</title><g id="レイヤー_2" data-name="レイヤー 2"><g id="レイヤー_1-2" data-name="レイヤー 1"><path d="M35.51,0l1.56.42Q28.41,11.88,21,22.26T7.19,42.15H.89q7.19-9,14.94-18.39T32,4.57q-5.62,4.1-12.7,8.67T.72,24.65L0,22.91Q11.84,16.06,21.26,10T35.51,0Z"/><path d="M59.31,20.33a46,46,0,0,1-7.82,5.58,13.12,13.12,0,0,1-6,1.86,4.75,4.75,0,0,1-3.64-1.4,5.45,5.45,0,0,1-1.31-3.89,14.68,14.68,0,0,1,1.8-6.68A26.84,26.84,0,0,1,47.52,9a31.51,31.51,0,0,1,8.14-5.88A18.08,18.08,0,0,1,63.54.93a5.66,5.66,0,0,1,4.19,1.52,5.55,5.55,0,0,1,1.52,4.1q0,3.85-2.73,9.17a55,55,0,0,1-7.59,10.91A62.37,62.37,0,0,1,45.26,38.79Q38.26,43.2,33,43.2a6.61,6.61,0,0,1-4-1.08,3.44,3.44,0,0,1-1.48-2.94,3.76,3.76,0,0,1,1-2.6,3.11,3.11,0,0,1,2.37-1.12,2.46,2.46,0,0,1,1.73.55,2,2,0,0,1,.59,1.52q0,1.23-1.52,1.78T30.18,40.5q0,.42.74.74a4.57,4.57,0,0,0,1.8.32q4.78,0,11.94-5.69A86.64,86.64,0,0,0,59.31,20.33ZM63.45,2.58q-2.58,0-6.07,2.39a38.46,38.46,0,0,0-7.25,6.79,46.08,46.08,0,0,0-5.16,7,11.3,11.3,0,0,0-1.86,5,2.13,2.13,0,0,0,.63,1.67,2.7,2.7,0,0,0,1.86.57,12.57,12.57,0,0,0,5.58-1.82,36.69,36.69,0,0,0,7-5A33.24,33.24,0,0,0,64.43,12q2.41-3.82,2.41-6.28a3,3,0,0,0-.91-2.28A3.49,3.49,0,0,0,63.45,2.58Z"/></g></g></svg>