<svg xmlns="http://www.w3.org/2000/svg" viewBox="0 0 81.72 42.27"><title>アセット 8</title><g id="レイヤー_2" data-name="レイヤー 2"><g id="レイヤー_1-2" data-name="レイヤー 1"><path d="M8,36q1.19-.13,2-.19t1.16-.06a17.8,17.8,0,0,1,6.79,1.56,16.64,16.64,0,0,0,5.18,1.56A6.37,6.37,0,0,0,27,37.48,19.27,19.27,0,0,0,31,33l1.31.63A20,20,0,0,1,27,39.95,10,10,0,0,1,21,42.15a19.11,19.11,0,0,1-6.55-1.71,19,19,0,0,0-6.26-1.71,11.08,11.08,0,0,0-3.55.61A14.45,14.45,0,0,0,1,41.22L0,39.74A162.63,162.63,0,0,1,17.78,28.11q10.38-6,11.56-6.72a39.56,39.56,0,0,0,9.74-8.62Q43,7.9,43,4.86a2.68,2.68,0,0,0-1.14-2.3,5.58,5.58,0,0,0-3.3-.83A14,14,0,0,0,32.8,3.3a24,24,0,0,0-6.13,4.14A26.56,26.56,0,0,0,22,12.79a9,9,0,0,0-1.63,4.63,1.62,1.62,0,0,0,.63,1.29,2.49,2.49,0,0,0,1.65.53q2.58,0,5.71-3a20.69,20.69,0,0,0,4.9-7.42l1.31.25a20.08,20.08,0,0,1-5.18,8.41q-3.53,3.38-6.83,3.38a3.64,3.64,0,0,1-2.81-1.12,4.33,4.33,0,0,1-1-3.06,11.44,11.44,0,0,1,1.86-5.81,20.92,20.92,0,0,1,5-5.6,26,26,0,0,1,6.51-3.83A17.24,17.24,0,0,1,38.51.08a7.86,7.86,0,0,1,5.22,1.59A5.32,5.32,0,0,1,45.61,6a15.19,15.19,0,0,1-3.93,10q-3.93,4.65-12,8.84-2.5,1.31-7.61,3.68A96.45,96.45,0,0,0,8,36Z"/><path d="M41.39,36.36q0-5.28,3.7-12A52.37,52.37,0,0,1,55.21,11.63,51.42,51.42,0,0,1,66.77,3.25Q73,0,76.77,0a5.18,5.18,0,0,1,3.61,1.2,4.15,4.15,0,0,1,1.33,3.23q0,4.78-4,11.52A77.35,77.35,0,0,1,66.37,30.23,56.11,56.11,0,0,1,55.7,39.06q-5.22,3.21-8.77,3.21a5.33,5.33,0,0,1-4.1-1.54A6.18,6.18,0,0,1,41.39,36.36ZM76.52,1.82q-3.38,0-8.5,3.59a65.52,65.52,0,0,0-10.91,10.1,89.55,89.55,0,0,0-9.93,13q-3.64,6-3.64,9.07a3,3,0,0,0,.91,2.28,3.49,3.49,0,0,0,2.47.85q3.17,0,8-3.07A58.6,58.6,0,0,0,65.1,29.08,76.61,76.61,0,0,0,75.88,15.58Q80,8.88,80,5.2a3.36,3.36,0,0,0-.89-2.52A3.55,3.55,0,0,0,76.52,1.82Z"/></g></g></svg>