<svg xmlns="http://www.w3.org/2000/svg" viewBox="0 0 83.2 42.99"><title>アセット 9</title><g id="レイヤー_2" data-name="レイヤー 2"><g id="レイヤー_1-2" data-name="レイヤー 1"><path d="M8,36.86l2-.19q.82-.06,1.16-.06a17.81,17.81,0,0,1,6.79,1.56,16.65,16.65,0,0,0,5.18,1.56A6.37,6.37,0,0,0,27,38.32a19.28,19.28,0,0,0,4-4.5l1.31.63A19.94,19.94,0,0,1,27,40.79,10,10,0,0,1,21,43a19.12,19.12,0,0,1-6.55-1.71,19,19,0,0,0-6.26-1.71,11.08,11.08,0,0,0-3.55.61A14.48,14.48,0,0,0,1,42.06L0,40.58A162.7,162.7,0,0,1,17.78,29q10.38-6,11.56-6.72a39.56,39.56,0,0,0,9.74-8.62Q43,8.75,43,5.71a2.68,2.68,0,0,0-1.14-2.3,5.59,5.59,0,0,0-3.3-.82A14,14,0,0,0,32.8,4.14a24,24,0,0,0-6.13,4.14A26.5,26.5,0,0,0,22,13.63a9,9,0,0,0-1.63,4.63,1.62,1.62,0,0,0,.63,1.29,2.49,2.49,0,0,0,1.65.53q2.58,0,5.71-3a20.69,20.69,0,0,0,4.9-7.42l1.31.25a20.08,20.08,0,0,1-5.18,8.41q-3.53,3.38-6.83,3.38a3.64,3.64,0,0,1-2.81-1.12,4.33,4.33,0,0,1-1-3.06,11.43,11.43,0,0,1,1.86-5.81,20.93,20.93,0,0,1,5-5.6A26.05,26.05,0,0,1,32.13,2.3,17.23,17.23,0,0,1,38.51.93a7.86,7.86,0,0,1,5.22,1.59,5.32,5.32,0,0,1,1.88,4.29,15.19,15.19,0,0,1-3.93,10q-3.93,4.65-12,8.84-2.5,1.31-7.61,3.68A96.51,96.51,0,0,0,8,36.86Z"/><path d="M81.63,0,83.2.42Q74.53,11.88,67.11,22.26T53.31,42.15H47Q54.2,33.1,62,23.76T78.17,4.57q-5.62,4.1-12.7,8.67T46.84,24.65l-.72-1.73Q58,16.06,67.39,10T81.63,0Z"/></g></g></svg>