<svg xmlns="http://www.w3.org/2000/svg" viewBox="0 0 80.66 42.06"><title>アセット 18</title><g id="レイヤー_2" data-name="レイヤー 2"><g id="レイヤー_1-2" data-name="レイヤー 1"><path d="M8,35.93l2-.19q.82-.06,1.16-.06a17.81,17.81,0,0,1,6.79,1.56,16.65,16.65,0,0,0,5.18,1.56A6.37,6.37,0,0,0,27,37.39a19.28,19.28,0,0,0,4-4.5l1.31.63A19.94,19.94,0,0,1,27,39.86,10,10,0,0,1,21,42.06a19.12,19.12,0,0,1-6.55-1.71,19,19,0,0,0-6.26-1.71,11.08,11.08,0,0,0-3.55.61A14.48,14.48,0,0,0,1,41.13L0,39.65A162.7,162.7,0,0,1,17.78,28q10.38-6,11.56-6.72a39.56,39.56,0,0,0,9.74-8.62Q43,7.82,43,4.78a2.68,2.68,0,0,0-1.14-2.3,5.59,5.59,0,0,0-3.3-.82A14,14,0,0,0,32.8,3.21a24,24,0,0,0-6.13,4.14A26.5,26.5,0,0,0,22,12.7a9,9,0,0,0-1.63,4.63,1.62,1.62,0,0,0,.63,1.29,2.49,2.49,0,0,0,1.65.53q2.58,0,5.71-3a20.69,20.69,0,0,0,4.9-7.42L34.62,9a20.08,20.08,0,0,1-5.18,8.41q-3.53,3.38-6.83,3.38a3.64,3.64,0,0,1-2.81-1.12,4.33,4.33,0,0,1-1-3.06,11.43,11.43,0,0,1,1.86-5.81,20.93,20.93,0,0,1,5-5.6,26.05,26.05,0,0,1,6.51-3.83A17.23,17.23,0,0,1,38.51,0a7.86,7.86,0,0,1,5.22,1.59,5.32,5.32,0,0,1,1.88,4.29,15.19,15.19,0,0,1-3.93,10q-3.93,4.65-12,8.84-2.5,1.31-7.61,3.68A96.51,96.51,0,0,0,8,35.93Z"/><path d="M43,35.93c.79-.08,1.46-.15,2-.19s.94-.06,1.16-.06A17.81,17.81,0,0,1,53,37.24a16.65,16.65,0,0,0,5.18,1.56A6.37,6.37,0,0,0,62,37.39a19.26,19.26,0,0,0,4-4.5l1.31.63a19.94,19.94,0,0,1-5.26,6.34A10,10,0,0,1,56,42.06a19.12,19.12,0,0,1-6.55-1.71,19,19,0,0,0-6.26-1.71,11.09,11.09,0,0,0-3.55.61A14.48,14.48,0,0,0,36,41.13l-1-1.48A162.68,162.68,0,0,1,52.82,28q10.38-6,11.56-6.72a39.52,39.52,0,0,0,9.74-8.62Q78,7.82,78,4.78a2.68,2.68,0,0,0-1.14-2.3,5.58,5.58,0,0,0-3.3-.82,14,14,0,0,0-5.71,1.56,24,24,0,0,0-6.13,4.14,26.57,26.57,0,0,0-4.63,5.35,9,9,0,0,0-1.63,4.63,1.62,1.62,0,0,0,.63,1.29,2.49,2.49,0,0,0,1.65.53q2.58,0,5.71-3a20.69,20.69,0,0,0,4.9-7.42L69.67,9a20.07,20.07,0,0,1-5.18,8.41Q61,20.8,57.66,20.8a3.64,3.64,0,0,1-2.81-1.12,4.34,4.34,0,0,1-1-3.06,11.43,11.43,0,0,1,1.86-5.81,20.93,20.93,0,0,1,5-5.6,26.08,26.08,0,0,1,6.51-3.83A17.22,17.22,0,0,1,73.56,0a7.86,7.86,0,0,1,5.22,1.59,5.32,5.32,0,0,1,1.88,4.29,15.19,15.19,0,0,1-3.93,10q-3.93,4.65-12,8.84Q62.23,26,57.11,28.37A96.49,96.49,0,0,0,43,35.93Z"/></g></g></svg>