<svg xmlns="http://www.w3.org/2000/svg" viewBox="0 0 79.73 42.53"><title>アセット 10</title><g id="レイヤー_2" data-name="レイヤー 2"><g id="レイヤー_1-2" data-name="レイヤー 1"><path d="M8,36l2-.19q.82-.06,1.16-.06a17.81,17.81,0,0,1,6.79,1.56,16.65,16.65,0,0,0,5.18,1.56A6.37,6.37,0,0,0,27,37.48,19.28,19.28,0,0,0,31,33l1.31.63A19.94,19.94,0,0,1,27,39.95,10,10,0,0,1,21,42.15a19.12,19.12,0,0,1-6.55-1.71,19,19,0,0,0-6.26-1.71,11.08,11.08,0,0,0-3.55.61A14.48,14.48,0,0,0,1,41.22L0,39.74A162.7,162.7,0,0,1,17.78,28.11q10.38-6,11.56-6.72a39.56,39.56,0,0,0,9.74-8.62Q43,7.91,43,4.86a2.68,2.68,0,0,0-1.14-2.3,5.59,5.59,0,0,0-3.3-.82A14,14,0,0,0,32.8,3.3a24,24,0,0,0-6.13,4.14A26.5,26.5,0,0,0,22,12.79a9,9,0,0,0-1.63,4.63,1.62,1.62,0,0,0,.63,1.29,2.49,2.49,0,0,0,1.65.53q2.58,0,5.71-3a20.69,20.69,0,0,0,4.9-7.42l1.31.25a20.08,20.08,0,0,1-5.18,8.41q-3.53,3.38-6.83,3.38a3.64,3.64,0,0,1-2.81-1.12,4.33,4.33,0,0,1-1-3.06,11.43,11.43,0,0,1,1.86-5.81,20.93,20.93,0,0,1,5-5.6,26.05,26.05,0,0,1,6.51-3.83A17.23,17.23,0,0,1,38.51.08a7.86,7.86,0,0,1,5.22,1.59A5.32,5.32,0,0,1,45.61,6a15.19,15.19,0,0,1-3.93,10q-3.93,4.65-12,8.84-2.5,1.31-7.61,3.68A96.51,96.51,0,0,0,8,36Z"/><path d="M65.36,19a5.24,5.24,0,0,1,3,1.71,5.54,5.54,0,0,1,.93,3.45,11.16,11.16,0,0,1-2.2,6.3,24.62,24.62,0,0,1-6.3,6.09,33.63,33.63,0,0,1-8.31,4.38,23.87,23.87,0,0,1-8,1.63A7.45,7.45,0,0,1,40,41.28a4.1,4.1,0,0,1-.76-5.92,2.9,2.9,0,0,1,2.28-1.08,2.45,2.45,0,0,1,1.71.63,2.08,2.08,0,0,1,.7,1.61,2,2,0,0,1-1.4,2q-1.4.55-1.4.76,0,.72,1,1.14a6.55,6.55,0,0,0,2.58.42,15.2,15.2,0,0,0,6.76-2.05,33.59,33.59,0,0,0,7.61-5.56,35,35,0,0,0,5.12-6q2-3,2-4.52a1.74,1.74,0,0,0-.68-1.48,3.11,3.11,0,0,0-1.9-.51,8.89,8.89,0,0,0-2.66.53q-1.61.53-5.92,2.47l-.84-1.27q10.57-4.4,16.49-9.13T76.6,4.61a2.5,2.5,0,0,0-1-2.13,4.8,4.8,0,0,0-2.9-.74q-4.4,0-9,3.57T59,11.71a2,2,0,0,0,.59,1.52,2.39,2.39,0,0,0,1.69.55,6.9,6.9,0,0,0,4-1.78,16.57,16.57,0,0,0,4-4.57L70.39,8A15.72,15.72,0,0,1,66,13.42a8.74,8.74,0,0,1-5.33,2.09,3.51,3.51,0,0,1-2.6-1,3.51,3.51,0,0,1-1-2.6q0-4.06,5.14-8A17.78,17.78,0,0,1,73.3,0,7.16,7.16,0,0,1,78,1.44,4.61,4.61,0,0,1,79.73,5.2q0,3.72-3.85,7.42A32.27,32.27,0,0,1,65.36,19Z"/></g></g></svg>