<svg xmlns="http://www.w3.org/2000/svg" viewBox="0 0 82.48 42.06"><title>アセット 11</title><g id="レイヤー_2" data-name="レイヤー 2"><g id="レイヤー_1-2" data-name="レイヤー 1"><path d="M8,35.93q1.19-.13,2-.19t1.16-.06a17.8,17.8,0,0,1,6.79,1.56,16.64,16.64,0,0,0,5.18,1.56A6.37,6.37,0,0,0,27,37.39a19.27,19.27,0,0,0,4-4.5l1.31.63A20,20,0,0,1,27,39.87,10,10,0,0,1,21,42.06a19.11,19.11,0,0,1-6.55-1.71,19,19,0,0,0-6.26-1.71,11.08,11.08,0,0,0-3.55.61A14.45,14.45,0,0,0,1,41.13L0,39.65A162.63,162.63,0,0,1,17.78,28q10.38-6,11.56-6.72a39.56,39.56,0,0,0,9.74-8.62Q43,7.82,43,4.78a2.68,2.68,0,0,0-1.14-2.3,5.59,5.59,0,0,0-3.3-.82A14,14,0,0,0,32.8,3.21a24,24,0,0,0-6.13,4.14A26.5,26.5,0,0,0,22,12.7a9,9,0,0,0-1.63,4.63,1.62,1.62,0,0,0,.63,1.29,2.49,2.49,0,0,0,1.65.53q2.58,0,5.71-3a20.69,20.69,0,0,0,4.9-7.42L34.62,9a20.08,20.08,0,0,1-5.18,8.41q-3.53,3.38-6.83,3.38a3.64,3.64,0,0,1-2.81-1.12,4.33,4.33,0,0,1-1-3.06,11.43,11.43,0,0,1,1.86-5.81,20.93,20.93,0,0,1,5-5.6,26.05,26.05,0,0,1,6.51-3.83A17.23,17.23,0,0,1,38.51,0a7.86,7.86,0,0,1,5.22,1.59,5.32,5.32,0,0,1,1.88,4.29,15.19,15.19,0,0,1-3.93,10q-3.93,4.65-12,8.84-2.5,1.31-7.61,3.68A96.45,96.45,0,0,0,8,35.93Z"/><path d="M76,.34h6.47Q72.58,8.75,47.14,28l-1.35,1q2.11-.21,4-.32t3.55-.11q2,0,4.14.19t4.4.57l5-5.24q2.54-2.66,5.2-5.37h2.07q-2.24,2.62-4.44,5.37t-4.4,5.54h.17a19.31,19.31,0,0,0,2.16.17,11.52,11.52,0,0,0,1.73-.15q1-.15,2.33-.49L72,30.65a11.89,11.89,0,0,1-2.47.66,19.92,19.92,0,0,1-3.19.23l-1.12,0-1-.06q-1.9,2.58-3.64,5t-3.3,4.76H51q2.87-3.38,5-5.77T60.07,31a34,34,0,0,0-3.51-.51q-1.82-.17-3.93-.17a31.63,31.63,0,0,0-6.38.57,18.81,18.81,0,0,0-5,1.75l-1-1.56Q48.87,24.69,57.89,17T76,.34Z"/></g></g></svg>