<svg xmlns="http://www.w3.org/2000/svg" viewBox="0 0 85.27 42.27"><title>アセット 13</title><g id="レイヤー_2" data-name="レイヤー 2"><g id="レイヤー_1-2" data-name="レイヤー 1"><path d="M8,35.93q1.19-.13,2-.19t1.16-.06a17.8,17.8,0,0,1,6.79,1.56,16.64,16.64,0,0,0,5.18,1.56A6.37,6.37,0,0,0,27,37.39a19.27,19.27,0,0,0,4-4.5l1.31.63A20,20,0,0,1,27,39.87,10,10,0,0,1,21,42.06a19.11,19.11,0,0,1-6.55-1.71,19,19,0,0,0-6.26-1.71,11.08,11.08,0,0,0-3.55.61A14.45,14.45,0,0,0,1,41.13L0,39.65A162.63,162.63,0,0,1,17.78,28q10.38-6,11.56-6.72a39.56,39.56,0,0,0,9.74-8.62Q43,7.82,43,4.78a2.68,2.68,0,0,0-1.14-2.3,5.58,5.58,0,0,0-3.3-.83A14,14,0,0,0,32.8,3.21a24,24,0,0,0-6.13,4.14A26.56,26.56,0,0,0,22,12.7a9,9,0,0,0-1.63,4.63,1.62,1.62,0,0,0,.63,1.29,2.49,2.49,0,0,0,1.65.53q2.58,0,5.71-3a20.69,20.69,0,0,0,4.9-7.42L34.62,9a20.08,20.08,0,0,1-5.18,8.41q-3.53,3.38-6.83,3.38a3.64,3.64,0,0,1-2.81-1.12,4.33,4.33,0,0,1-1-3.06,11.44,11.44,0,0,1,1.86-5.81,20.92,20.92,0,0,1,5-5.6,26,26,0,0,1,6.51-3.83A17.24,17.24,0,0,1,38.51,0a7.86,7.86,0,0,1,5.22,1.59,5.32,5.32,0,0,1,1.88,4.29,15.19,15.19,0,0,1-3.93,10q-3.93,4.65-12,8.84-2.5,1.31-7.61,3.68A96.45,96.45,0,0,0,8,35.93Z"/><path d="M53.48,22.79a45.75,45.75,0,0,1,7.82-5.54,13.39,13.39,0,0,1,6-1.9,4.54,4.54,0,0,1,3.59,1.44A6.14,6.14,0,0,1,72.2,21a14.35,14.35,0,0,1-1.84,6.51,26.36,26.36,0,0,1-5.09,6.72,31,31,0,0,1-8.07,5.88,18,18,0,0,1-7.86,2.2,5.58,5.58,0,0,1-4.16-1.56,5.7,5.7,0,0,1-1.54-4.18,20.89,20.89,0,0,1,2.68-9.13,54.91,54.91,0,0,1,7.5-10.86A64.42,64.42,0,0,1,67.58,4.42Q74.57,0,79.81,0a6.61,6.61,0,0,1,4,1.08A3.4,3.4,0,0,1,85.27,4a3.57,3.57,0,0,1-1,2.6,3.31,3.31,0,0,1-2.45,1,2.47,2.47,0,0,1-1.63-.51,1.72,1.72,0,0,1-.61-1.4,2,2,0,0,1,1.5-1.88q1.5-.57,1.5-1.21,0-.42-.72-.74a4.41,4.41,0,0,0-1.78-.32q-4.82,0-12,5.67A84.32,84.32,0,0,0,53.48,22.79ZM49.33,40.54q2.58,0,6.07-2.41a39.74,39.74,0,0,0,7.25-6.76,47.6,47.6,0,0,0,5.22-7.08q1.88-3.23,1.88-5a2.07,2.07,0,0,0-.68-1.67,2.87,2.87,0,0,0-1.9-.57,12.58,12.58,0,0,0-5.6,1.8,36.33,36.33,0,0,0-7,5,32.94,32.94,0,0,0-6.24,7.21Q46,35,46,37.41a3,3,0,0,0,.93,2.26A3.45,3.45,0,0,0,49.33,40.54Z"/></g></g></svg>