<svg xmlns="http://www.w3.org/2000/svg" viewBox="0 0 81.55 42.27"><title>アセット 15</title><g id="レイヤー_2" data-name="レイヤー 2"><g id="レイヤー_1-2" data-name="レイヤー 1"><path d="M8,35.93q1.19-.13,2-.19t1.16-.06a17.8,17.8,0,0,1,6.79,1.56,16.64,16.64,0,0,0,5.18,1.56A6.37,6.37,0,0,0,27,37.39a19.27,19.27,0,0,0,4-4.5l1.31.63A20,20,0,0,1,27,39.87,10,10,0,0,1,21,42.06a19.11,19.11,0,0,1-6.55-1.71,19,19,0,0,0-6.26-1.71,11.08,11.08,0,0,0-3.55.61A14.45,14.45,0,0,0,1,41.13L0,39.65A162.63,162.63,0,0,1,17.78,28q10.38-6,11.56-6.72a39.56,39.56,0,0,0,9.74-8.62Q43,7.82,43,4.78a2.68,2.68,0,0,0-1.14-2.3,5.58,5.58,0,0,0-3.3-.83A14,14,0,0,0,32.8,3.21a24,24,0,0,0-6.13,4.14A26.56,26.56,0,0,0,22,12.7a9,9,0,0,0-1.63,4.63,1.62,1.62,0,0,0,.63,1.29,2.49,2.49,0,0,0,1.65.53q2.58,0,5.71-3a20.69,20.69,0,0,0,4.9-7.42L34.62,9a20.08,20.08,0,0,1-5.18,8.41q-3.53,3.38-6.83,3.38a3.64,3.64,0,0,1-2.81-1.12,4.33,4.33,0,0,1-1-3.06,11.44,11.44,0,0,1,1.86-5.81,20.92,20.92,0,0,1,5-5.6,26,26,0,0,1,6.51-3.83A17.24,17.24,0,0,1,38.51,0a7.86,7.86,0,0,1,5.22,1.59,5.32,5.32,0,0,1,1.88,4.29,15.19,15.19,0,0,1-3.93,10q-3.93,4.65-12,8.84-2.5,1.31-7.61,3.68A96.45,96.45,0,0,0,8,35.93Z"/><path d="M66,18.9a32.2,32.2,0,0,1,1.84,4.23,9.26,9.26,0,0,1,.49,2.79q0,6-5.79,11.2T50.09,42.27a9.45,9.45,0,0,1-6.3-1.9,6.56,6.56,0,0,1-2.24-5.28q0-4.9,4.86-9T60.75,19a19.36,19.36,0,0,1-1.06-3,10.48,10.48,0,0,1-.34-2.54q0-5.16,4.54-9.3A15,15,0,0,1,74.28,0a8.47,8.47,0,0,1,5.39,1.5,5.17,5.17,0,0,1,1.88,4.29q0,4.06-4,7.4T66,18.9Zm-4.48,1.65A34.86,34.86,0,0,0,48.7,26.82Q44,30.78,44,35a5.29,5.29,0,0,0,1.75,4.12,6.7,6.7,0,0,0,4.67,1.58,13.84,13.84,0,0,0,9.66-4q4.33-4,4.33-8.77a9,9,0,0,0-.63-3.11A25.25,25.25,0,0,0,61.55,20.54Zm3.72-3.13q7.4-2.41,10.61-5.14a8.26,8.26,0,0,0,3.21-6.49,4,4,0,0,0-1.35-3.13,5.33,5.33,0,0,0-3.64-1.18,10.89,10.89,0,0,0-7.44,2.94,8.75,8.75,0,0,0-3.3,6.66,10.16,10.16,0,0,0,.44,2.9A19.61,19.61,0,0,0,65.27,17.42Z"/></g></g></svg>