<svg xmlns="http://www.w3.org/2000/svg" viewBox="0 0 80.32 42.27"><title>アセット 16</title><g id="レイヤー_2" data-name="レイヤー 2"><g id="レイヤー_1-2" data-name="レイヤー 1"><path d="M8,35.93q1.19-.13,2-.19t1.16-.06a17.8,17.8,0,0,1,6.79,1.56,16.64,16.64,0,0,0,5.18,1.56A6.37,6.37,0,0,0,27,37.39a19.27,19.27,0,0,0,4-4.5l1.31.63A20,20,0,0,1,27,39.87,10,10,0,0,1,21,42.06a19.11,19.11,0,0,1-6.55-1.71,19,19,0,0,0-6.26-1.71,11.08,11.08,0,0,0-3.55.61A14.45,14.45,0,0,0,1,41.13L0,39.65A162.63,162.63,0,0,1,17.78,28q10.38-6,11.56-6.72a39.56,39.56,0,0,0,9.74-8.62Q43,7.82,43,4.78a2.68,2.68,0,0,0-1.14-2.3,5.58,5.58,0,0,0-3.3-.83A14,14,0,0,0,32.8,3.21a24,24,0,0,0-6.13,4.14A26.56,26.56,0,0,0,22,12.7a9,9,0,0,0-1.63,4.63,1.62,1.62,0,0,0,.63,1.29,2.49,2.49,0,0,0,1.65.53q2.58,0,5.71-3a20.69,20.69,0,0,0,4.9-7.42L34.62,9a20.08,20.08,0,0,1-5.18,8.41q-3.53,3.38-6.83,3.38a3.64,3.64,0,0,1-2.81-1.12,4.33,4.33,0,0,1-1-3.06,11.44,11.44,0,0,1,1.86-5.81,20.92,20.92,0,0,1,5-5.6,26,26,0,0,1,6.51-3.83A17.24,17.24,0,0,1,38.51,0a7.86,7.86,0,0,1,5.22,1.59,5.32,5.32,0,0,1,1.88,4.29,15.19,15.19,0,0,1-3.93,10q-3.93,4.65-12,8.84-2.5,1.31-7.61,3.68A96.45,96.45,0,0,0,8,35.93Z"/><path d="M70.39,19.4A46,46,0,0,1,62.57,25a13.12,13.12,0,0,1-6,1.86A4.75,4.75,0,0,1,53,25.45a5.45,5.45,0,0,1-1.31-3.89,14.68,14.68,0,0,1,1.8-6.68,26.84,26.84,0,0,1,5.14-6.81A31.51,31.51,0,0,1,66.73,2.2,18.08,18.08,0,0,1,74.61,0,5.66,5.66,0,0,1,78.8,1.52a5.55,5.55,0,0,1,1.52,4.1q0,3.85-2.73,9.17A55,55,0,0,1,70,25.7,62.37,62.37,0,0,1,56.33,37.86q-7,4.42-12.28,4.42a6.61,6.61,0,0,1-4-1.08,3.44,3.44,0,0,1-1.48-2.94,3.76,3.76,0,0,1,1-2.6A3.11,3.11,0,0,1,42,34.54a2.46,2.46,0,0,1,1.73.55,2,2,0,0,1,.59,1.52q0,1.23-1.52,1.78t-1.52,1.18q0,.42.74.74a4.57,4.57,0,0,0,1.8.32q4.78,0,11.94-5.69A86.64,86.64,0,0,0,70.39,19.4ZM74.53,1.65q-2.58,0-6.07,2.39a38.46,38.46,0,0,0-7.25,6.79,46.08,46.08,0,0,0-5.16,7,11.3,11.3,0,0,0-1.86,5,2.13,2.13,0,0,0,.63,1.67,2.7,2.7,0,0,0,1.86.57,12.57,12.57,0,0,0,5.58-1.82,36.69,36.69,0,0,0,7-5,33.24,33.24,0,0,0,6.26-7.21q2.41-3.82,2.41-6.28A3,3,0,0,0,77,2.49,3.49,3.49,0,0,0,74.53,1.65Z"/></g></g></svg>