<svg xmlns="http://www.w3.org/2000/svg" viewBox="0 0 78.42 42.53"><title>アセット 17</title><g id="レイヤー_2" data-name="レイヤー 2"><g id="レイヤー_1-2" data-name="レイヤー 1"><path d="M27,19a5.24,5.24,0,0,1,3,1.71A5.55,5.55,0,0,1,31,24.14a11.15,11.15,0,0,1-2.2,6.3,24.61,24.61,0,0,1-6.3,6.09,33.64,33.64,0,0,1-8.31,4.38,23.88,23.88,0,0,1-8,1.63,7.46,7.46,0,0,1-4.52-1.25,4.1,4.1,0,0,1-.76-5.92,2.9,2.9,0,0,1,2.28-1.08,2.45,2.45,0,0,1,1.71.63,2.08,2.08,0,0,1,.7,1.61,2,2,0,0,1-1.4,2q-1.39.55-1.39.76,0,.72,1,1.14a6.55,6.55,0,0,0,2.58.42,15.2,15.2,0,0,0,6.76-2.05,33.52,33.52,0,0,0,7.61-5.56,34.93,34.93,0,0,0,5.12-6q2-3,2-4.52a1.73,1.73,0,0,0-.68-1.48,3.11,3.11,0,0,0-1.9-.51,8.91,8.91,0,0,0-2.66.53q-1.61.53-5.92,2.47l-.84-1.27q10.57-4.4,16.49-9.13t5.92-8.71a2.5,2.5,0,0,0-1-2.13,4.8,4.8,0,0,0-2.89-.74q-4.4,0-9,3.57t-4.65,6.41a2,2,0,0,0,.59,1.52,2.39,2.39,0,0,0,1.69.55,6.9,6.9,0,0,0,4-1.78,16.59,16.59,0,0,0,4-4.57L32,8a15.71,15.71,0,0,1-4.4,5.43,8.74,8.74,0,0,1-5.33,2.09,3.51,3.51,0,0,1-2.6-1,3.51,3.51,0,0,1-1-2.6q0-4.06,5.14-8A17.78,17.78,0,0,1,35,0a7.17,7.17,0,0,1,4.65,1.44A4.61,4.61,0,0,1,41.39,5.2q0,3.72-3.85,7.42A32.27,32.27,0,0,1,27,19Z"/><path d="M38.09,36.36q0-5.28,3.7-12A52.37,52.37,0,0,1,51.91,11.63,51.42,51.42,0,0,1,63.47,3.25Q69.67,0,73.47,0a5.18,5.18,0,0,1,3.61,1.2,4.15,4.15,0,0,1,1.33,3.23q0,4.78-4,11.52A77.35,77.35,0,0,1,63.07,30.23,56.11,56.11,0,0,1,52.4,39.06q-5.22,3.21-8.77,3.21a5.33,5.33,0,0,1-4.1-1.54A6.18,6.18,0,0,1,38.09,36.36ZM73.22,1.82q-3.38,0-8.5,3.59a65.52,65.52,0,0,0-10.91,10.1,89.55,89.55,0,0,0-9.93,13q-3.64,6-3.64,9.07a3,3,0,0,0,.91,2.28,3.49,3.49,0,0,0,2.47.85q3.17,0,8-3.07A58.6,58.6,0,0,0,61.8,29.08,76.61,76.61,0,0,0,72.58,15.58q4.1-6.7,4.1-10.38a3.36,3.36,0,0,0-.89-2.52A3.55,3.55,0,0,0,73.22,1.82Z"/></g></g></svg>