<svg xmlns="http://www.w3.org/2000/svg" viewBox="0 0 77.36 42.53"><title>アセット 20</title><g id="レイヤー_2" data-name="レイヤー 2"><g id="レイヤー_1-2" data-name="レイヤー 1"><path d="M27,19a5.24,5.24,0,0,1,3,1.71A5.55,5.55,0,0,1,31,24.14a11.15,11.15,0,0,1-2.2,6.3,24.61,24.61,0,0,1-6.3,6.09,33.61,33.61,0,0,1-8.31,4.38,23.87,23.87,0,0,1-8,1.63,7.46,7.46,0,0,1-4.52-1.25,4.1,4.1,0,0,1-.76-5.92,2.9,2.9,0,0,1,2.28-1.08,2.45,2.45,0,0,1,1.71.63,2.08,2.08,0,0,1,.7,1.61,2,2,0,0,1-1.4,2q-1.39.55-1.39.76,0,.72,1,1.14a6.55,6.55,0,0,0,2.58.42,15.2,15.2,0,0,0,6.76-2.05,33.55,33.55,0,0,0,7.61-5.56,34.9,34.9,0,0,0,5.12-6q2-3,2-4.52a1.74,1.74,0,0,0-.68-1.48,3.12,3.12,0,0,0-1.9-.51,8.89,8.89,0,0,0-2.66.53q-1.61.53-5.92,2.47l-.84-1.27q10.57-4.4,16.49-9.13t5.92-8.71a2.5,2.5,0,0,0-1-2.13,4.8,4.8,0,0,0-2.89-.74q-4.4,0-9,3.57t-4.65,6.4a2,2,0,0,0,.59,1.52,2.39,2.39,0,0,0,1.69.55,6.9,6.9,0,0,0,4-1.78,16.59,16.59,0,0,0,4-4.57L32,8a15.71,15.71,0,0,1-4.4,5.43,8.74,8.74,0,0,1-5.33,2.09,3.51,3.51,0,0,1-2.6-1,3.51,3.51,0,0,1-1-2.6q0-4.06,5.14-8A17.78,17.78,0,0,1,35,0a7.16,7.16,0,0,1,4.65,1.44A4.61,4.61,0,0,1,41.39,5.2q0,3.72-3.85,7.42A32.27,32.27,0,0,1,27,19Z"/><path d="M39.74,36c.79-.08,1.46-.15,2-.19s.94-.06,1.16-.06a17.81,17.81,0,0,1,6.79,1.56,16.65,16.65,0,0,0,5.18,1.56,6.37,6.37,0,0,0,3.87-1.42,19.26,19.26,0,0,0,4-4.5l1.31.63a19.94,19.94,0,0,1-5.26,6.34,10,10,0,0,1-6.07,2.2,19.12,19.12,0,0,1-6.55-1.71,19,19,0,0,0-6.26-1.71,11.09,11.09,0,0,0-3.55.61,14.48,14.48,0,0,0-3.64,1.88l-1-1.48A162.68,162.68,0,0,1,49.52,28.11q10.38-6,11.56-6.72a39.52,39.52,0,0,0,9.74-8.62Q74.7,7.91,74.7,4.86a2.68,2.68,0,0,0-1.14-2.3,5.58,5.58,0,0,0-3.3-.82A14,14,0,0,0,64.55,3.3a24,24,0,0,0-6.13,4.14,26.57,26.57,0,0,0-4.63,5.35,9,9,0,0,0-1.63,4.63,1.62,1.62,0,0,0,.63,1.29,2.49,2.49,0,0,0,1.65.53q2.58,0,5.71-3a20.69,20.69,0,0,0,4.9-7.42l1.31.25a20.07,20.07,0,0,1-5.18,8.41q-3.53,3.38-6.83,3.38a3.64,3.64,0,0,1-2.81-1.12,4.34,4.34,0,0,1-1-3.06,11.43,11.43,0,0,1,1.86-5.81,20.93,20.93,0,0,1,5-5.6,26.08,26.08,0,0,1,6.51-3.83A17.22,17.22,0,0,1,70.26.08a7.86,7.86,0,0,1,5.22,1.59A5.32,5.32,0,0,1,77.36,6a15.19,15.19,0,0,1-3.93,10q-3.93,4.65-12,8.84-2.49,1.31-7.61,3.68A96.49,96.49,0,0,0,39.74,36Z"/></g></g></svg>