<svg xmlns="http://www.w3.org/2000/svg" viewBox="0 0 76.43 42.53"><title>アセット 21</title><g id="レイヤー_2" data-name="レイヤー 2"><g id="レイヤー_1-2" data-name="レイヤー 1"><path d="M27,19a5.24,5.24,0,0,1,3,1.71A5.55,5.55,0,0,1,31,24.14a11.15,11.15,0,0,1-2.2,6.3,24.61,24.61,0,0,1-6.3,6.09,33.61,33.61,0,0,1-8.31,4.38,23.87,23.87,0,0,1-8,1.63,7.46,7.46,0,0,1-4.52-1.25,4.1,4.1,0,0,1-.76-5.92,2.9,2.9,0,0,1,2.28-1.08,2.45,2.45,0,0,1,1.71.63,2.08,2.08,0,0,1,.7,1.61,2,2,0,0,1-1.4,2q-1.39.55-1.39.76,0,.72,1,1.14a6.55,6.55,0,0,0,2.58.42,15.2,15.2,0,0,0,6.76-2.05,33.55,33.55,0,0,0,7.61-5.56,34.9,34.9,0,0,0,5.12-6q2-3,2-4.52a1.74,1.74,0,0,0-.68-1.48,3.12,3.12,0,0,0-1.9-.51,8.89,8.89,0,0,0-2.66.53q-1.61.53-5.92,2.47l-.84-1.27q10.57-4.4,16.49-9.13t5.92-8.71a2.5,2.5,0,0,0-1-2.13,4.8,4.8,0,0,0-2.89-.74q-4.4,0-9,3.57t-4.65,6.4a2,2,0,0,0,.59,1.52,2.39,2.39,0,0,0,1.69.55,6.9,6.9,0,0,0,4-1.78,16.59,16.59,0,0,0,4-4.57L32,8a15.71,15.71,0,0,1-4.4,5.43,8.74,8.74,0,0,1-5.33,2.09,3.51,3.51,0,0,1-2.6-1,3.51,3.51,0,0,1-1-2.6q0-4.06,5.14-8A17.78,17.78,0,0,1,35,0a7.16,7.16,0,0,1,4.65,1.44A4.61,4.61,0,0,1,41.39,5.2q0,3.72-3.85,7.42A32.27,32.27,0,0,1,27,19Z"/><path d="M62.06,19a5.24,5.24,0,0,1,3,1.71A5.54,5.54,0,0,1,66,24.14a11.16,11.16,0,0,1-2.2,6.3,24.62,24.62,0,0,1-6.3,6.09,33.63,33.63,0,0,1-8.31,4.38,23.87,23.87,0,0,1-8,1.63,7.45,7.45,0,0,1-4.52-1.25A4.1,4.1,0,0,1,36,35.36a2.9,2.9,0,0,1,2.28-1.08,2.45,2.45,0,0,1,1.71.63,2.08,2.08,0,0,1,.7,1.61,2,2,0,0,1-1.4,2q-1.4.55-1.4.76,0,.72,1,1.14a6.55,6.55,0,0,0,2.58.42,15.2,15.2,0,0,0,6.76-2.05,33.59,33.59,0,0,0,7.61-5.56,35,35,0,0,0,5.12-6q2-3,2-4.52a1.74,1.74,0,0,0-.68-1.48,3.11,3.11,0,0,0-1.9-.51,8.89,8.89,0,0,0-2.66.53q-1.61.53-5.92,2.47l-.84-1.27q10.57-4.4,16.49-9.13T73.3,4.61a2.5,2.5,0,0,0-1-2.13,4.8,4.8,0,0,0-2.9-.74q-4.4,0-9,3.57t-4.65,6.4a2,2,0,0,0,.59,1.52,2.39,2.39,0,0,0,1.69.55A6.9,6.9,0,0,0,62,12a16.57,16.57,0,0,0,4-4.57L67.09,8a15.72,15.72,0,0,1-4.4,5.43,8.74,8.74,0,0,1-5.33,2.09,3.51,3.51,0,0,1-2.6-1,3.51,3.51,0,0,1-1-2.6q0-4.06,5.14-8A17.78,17.78,0,0,1,70,0a7.16,7.16,0,0,1,4.65,1.44A4.61,4.61,0,0,1,76.43,5.2q0,3.72-3.85,7.42A32.27,32.27,0,0,1,62.06,19Z"/></g></g></svg>