<svg xmlns="http://www.w3.org/2000/svg" viewBox="0 0 79.18 42.53"><title>アセット 22</title><g id="レイヤー_2" data-name="レイヤー 2"><g id="レイヤー_1-2" data-name="レイヤー 1"><path d="M27,19a5.24,5.24,0,0,1,3,1.71A5.55,5.55,0,0,1,31,24.14a11.15,11.15,0,0,1-2.2,6.3,24.61,24.61,0,0,1-6.3,6.09,33.64,33.64,0,0,1-8.31,4.38,23.88,23.88,0,0,1-8,1.63,7.46,7.46,0,0,1-4.52-1.25,4.1,4.1,0,0,1-.76-5.92,2.9,2.9,0,0,1,2.28-1.08,2.45,2.45,0,0,1,1.71.63,2.08,2.08,0,0,1,.7,1.61,2,2,0,0,1-1.4,2q-1.39.55-1.39.76,0,.72,1,1.14a6.55,6.55,0,0,0,2.58.42,15.2,15.2,0,0,0,6.76-2.05,33.52,33.52,0,0,0,7.61-5.56,34.93,34.93,0,0,0,5.12-6q2-3,2-4.52a1.74,1.74,0,0,0-.68-1.48,3.12,3.12,0,0,0-1.9-.51,8.89,8.89,0,0,0-2.66.53q-1.61.53-5.92,2.47l-.84-1.27q10.57-4.4,16.49-9.13t5.92-8.71a2.5,2.5,0,0,0-1-2.13,4.8,4.8,0,0,0-2.89-.74q-4.4,0-9,3.57t-4.65,6.4a2,2,0,0,0,.59,1.52,2.39,2.39,0,0,0,1.69.55,6.9,6.9,0,0,0,4-1.78,16.59,16.59,0,0,0,4-4.57L32,8a15.71,15.71,0,0,1-4.4,5.43,8.74,8.74,0,0,1-5.33,2.09,3.51,3.51,0,0,1-2.6-1,3.51,3.51,0,0,1-1-2.6q0-4.06,5.14-8A17.78,17.78,0,0,1,35,0a7.16,7.16,0,0,1,4.65,1.44A4.61,4.61,0,0,1,41.39,5.2q0,3.72-3.85,7.42A32.27,32.27,0,0,1,27,19Z"/><path d="M72.71.42h6.47Q69.29,8.84,43.84,28.07l-1.35,1q2.11-.21,4-.32T50,28.66q2,0,4.14.19t4.4.57l5-5.24q2.54-2.66,5.2-5.37h2.07q-2.24,2.62-4.44,5.37T62,29.72h.17a19.31,19.31,0,0,0,2.16.17A11.52,11.52,0,0,0,66,29.74q1-.15,2.33-.49l.38,1.48a11.89,11.89,0,0,1-2.47.66,19.92,19.92,0,0,1-3.19.23L62,31.6l-1-.06q-1.9,2.58-3.64,5T54,41.3h-6.3q2.87-3.38,5-5.77t4.08-4.46a34,34,0,0,0-3.51-.51q-1.82-.17-3.93-.17A31.63,31.63,0,0,0,43,31a18.81,18.81,0,0,0-5,1.75l-1-1.56Q45.57,24.77,54.6,17T72.71.42Z"/></g></g></svg>