<svg xmlns="http://www.w3.org/2000/svg" viewBox="0 0 79.43 43.04"><title>アセット 23</title><g id="レイヤー_2" data-name="レイヤー 2"><g id="レイヤー_1-2" data-name="レイヤー 1"><path d="M27,19.49a5.24,5.24,0,0,1,3,1.71A5.55,5.55,0,0,1,31,24.65a11.15,11.15,0,0,1-2.2,6.3A24.61,24.61,0,0,1,22.49,37a33.64,33.64,0,0,1-8.31,4.38,23.88,23.88,0,0,1-8,1.63,7.46,7.46,0,0,1-4.52-1.25,4.1,4.1,0,0,1-.76-5.92,2.9,2.9,0,0,1,2.28-1.08,2.45,2.45,0,0,1,1.71.63A2.08,2.08,0,0,1,5.62,37a2,2,0,0,1-1.4,2q-1.39.55-1.39.76,0,.72,1,1.14a6.55,6.55,0,0,0,2.58.42,15.2,15.2,0,0,0,6.76-2.05,33.52,33.52,0,0,0,7.61-5.56,34.93,34.93,0,0,0,5.12-6q2-3,2-4.52a1.73,1.73,0,0,0-.68-1.48,3.11,3.11,0,0,0-1.9-.51,8.91,8.91,0,0,0-2.66.53q-1.61.53-5.92,2.47L15.85,23q10.57-4.4,16.49-9.13t5.92-8.71a2.5,2.5,0,0,0-1-2.13,4.8,4.8,0,0,0-2.89-.74q-4.4,0-9,3.57t-4.65,6.41a2,2,0,0,0,.59,1.52,2.39,2.39,0,0,0,1.69.55,6.9,6.9,0,0,0,4-1.78,16.59,16.59,0,0,0,4-4.57L32,8.5a15.71,15.71,0,0,1-4.4,5.43A8.74,8.74,0,0,1,22.32,16a3.51,3.51,0,0,1-2.6-1,3.51,3.51,0,0,1-1-2.6q0-4.06,5.14-8A17.78,17.78,0,0,1,35,.51a7.17,7.17,0,0,1,4.65,1.44,4.61,4.61,0,0,1,1.78,3.76q0,3.72-3.85,7.42A32.27,32.27,0,0,1,27,19.49Z"/><path d="M78.84,0l.59,1.18A17.42,17.42,0,0,1,74,3.74a23.64,23.64,0,0,1-6.55.91q-.85,0-1.75-.08t-2.26-.3l-9.34,12a27.17,27.17,0,0,1,5-2.73,11.1,11.1,0,0,1,4-.91,5.75,5.75,0,0,1,4.38,1.82,6.62,6.62,0,0,1,1.71,4.73,15.94,15.94,0,0,1-2.75,8.41A34.36,34.36,0,0,1,58.68,36a36.14,36.14,0,0,1-8.46,5.07,20.89,20.89,0,0,1-8,1.78,7.35,7.35,0,0,1-4.57-1.29A4.07,4.07,0,0,1,36,38.17a3.91,3.91,0,0,1,.93-2.64,2.82,2.82,0,0,1,2.2-1.08,2.47,2.47,0,0,1,1.75.61,2.12,2.12,0,0,1,.66,1.63,2.17,2.17,0,0,1-1.42,2q-1.42.68-1.42.93,0,.51,1.14,1a7,7,0,0,0,2.75.49,14.09,14.09,0,0,0,6.3-1.8,28.16,28.16,0,0,0,6.76-5A46,46,0,0,0,63.22,25q2.89-4.82,2.9-7.74a2.72,2.72,0,0,0-.87-2.16,3.7,3.7,0,0,0-2.52-.76,12.46,12.46,0,0,0-5.94,2.11,42.4,42.4,0,0,0-7.55,5.92l-1.31-1L64,.93a27.67,27.67,0,0,0,3.36.68,23.38,23.38,0,0,0,3.11.21,19.4,19.4,0,0,0,4.18-.47A24.48,24.48,0,0,0,78.84,0Z"/></g></g></svg>