<svg xmlns="http://www.w3.org/2000/svg" viewBox="0 0 81.97 42.53"><title>アセット 24</title><g id="レイヤー_2" data-name="レイヤー 2"><g id="レイヤー_1-2" data-name="レイヤー 1"><path d="M27,19a5.24,5.24,0,0,1,3,1.71A5.55,5.55,0,0,1,31,24.14a11.15,11.15,0,0,1-2.2,6.3,24.61,24.61,0,0,1-6.3,6.09,33.64,33.64,0,0,1-8.31,4.38,23.88,23.88,0,0,1-8,1.63,7.46,7.46,0,0,1-4.52-1.25,4.1,4.1,0,0,1-.76-5.92,2.9,2.9,0,0,1,2.28-1.08,2.45,2.45,0,0,1,1.71.63,2.08,2.08,0,0,1,.7,1.61,2,2,0,0,1-1.4,2q-1.39.55-1.39.76,0,.72,1,1.14a6.55,6.55,0,0,0,2.58.42,15.2,15.2,0,0,0,6.76-2.05,33.52,33.52,0,0,0,7.61-5.56,34.93,34.93,0,0,0,5.12-6q2-3,2-4.52a1.73,1.73,0,0,0-.68-1.48,3.11,3.11,0,0,0-1.9-.51,8.91,8.91,0,0,0-2.66.53q-1.61.53-5.92,2.47l-.84-1.27q10.57-4.4,16.49-9.13t5.92-8.71a2.5,2.5,0,0,0-1-2.13,4.8,4.8,0,0,0-2.89-.74q-4.4,0-9,3.57t-4.65,6.41a2,2,0,0,0,.59,1.52,2.39,2.39,0,0,0,1.69.55,6.9,6.9,0,0,0,4-1.78,16.59,16.59,0,0,0,4-4.57L32,8a15.71,15.71,0,0,1-4.4,5.43,8.74,8.74,0,0,1-5.33,2.09,3.51,3.51,0,0,1-2.6-1,3.51,3.51,0,0,1-1-2.6q0-4.06,5.14-8A17.78,17.78,0,0,1,35,0a7.17,7.17,0,0,1,4.65,1.44A4.61,4.61,0,0,1,41.39,5.2q0,3.72-3.85,7.42A32.27,32.27,0,0,1,27,19Z"/><path d="M50.18,22.87A45.75,45.75,0,0,1,58,17.33a13.39,13.39,0,0,1,6-1.9,4.54,4.54,0,0,1,3.59,1.44,6.14,6.14,0,0,1,1.27,4.18,14.35,14.35,0,0,1-1.84,6.51A26.36,26.36,0,0,1,62,34.28a31,31,0,0,1-8.07,5.88A18,18,0,0,1,46,42.36a5.58,5.58,0,0,1-4.16-1.56,5.7,5.7,0,0,1-1.54-4.18A20.89,20.89,0,0,1,43,27.48a54.91,54.91,0,0,1,7.5-10.86A64.42,64.42,0,0,1,64.28,4.5Q71.27.08,76.52.08a6.61,6.61,0,0,1,4,1.08A3.4,3.4,0,0,1,82,4.06a3.57,3.57,0,0,1-1,2.6,3.31,3.31,0,0,1-2.45,1,2.47,2.47,0,0,1-1.63-.51,1.72,1.72,0,0,1-.61-1.4,2,2,0,0,1,1.5-1.88q1.5-.57,1.5-1.21,0-.42-.72-.74a4.41,4.41,0,0,0-1.78-.32q-4.82,0-12,5.67A84.32,84.32,0,0,0,50.18,22.87ZM46,40.63q2.58,0,6.07-2.41a39.74,39.74,0,0,0,7.25-6.76,47.6,47.6,0,0,0,5.22-7.08q1.88-3.23,1.88-5a2.07,2.07,0,0,0-.68-1.67,2.87,2.87,0,0,0-1.9-.57,12.58,12.58,0,0,0-5.6,1.8,36.33,36.33,0,0,0-7,5,32.94,32.94,0,0,0-6.24,7.21Q42.65,35,42.65,37.5a3,3,0,0,0,.93,2.26A3.45,3.45,0,0,0,46,40.63Z"/></g></g></svg>