<svg xmlns="http://www.w3.org/2000/svg" viewBox="0 0 82.48 51.87"><title>アセット 25</title><g id="レイヤー_2" data-name="レイヤー 2"><g id="レイヤー_1-2" data-name="レイヤー 1"><path d="M27,22.87a5.24,5.24,0,0,1,3,1.71A5.55,5.55,0,0,1,31,28a11.15,11.15,0,0,1-2.2,6.3,24.61,24.61,0,0,1-6.3,6.09,33.64,33.64,0,0,1-8.31,4.38,23.88,23.88,0,0,1-8,1.63,7.46,7.46,0,0,1-4.52-1.25,4.1,4.1,0,0,1-.76-5.92,2.9,2.9,0,0,1,2.28-1.08,2.45,2.45,0,0,1,1.71.63,2.08,2.08,0,0,1,.7,1.61,2,2,0,0,1-1.4,2q-1.39.55-1.39.76,0,.72,1,1.14a6.55,6.55,0,0,0,2.58.42,15.2,15.2,0,0,0,6.76-2.05,33.52,33.52,0,0,0,7.61-5.56,34.93,34.93,0,0,0,5.12-6q2-3,2-4.52a1.73,1.73,0,0,0-.68-1.48,3.11,3.11,0,0,0-1.9-.51,8.91,8.91,0,0,0-2.66.53q-1.61.53-5.92,2.47l-.84-1.27q10.57-4.4,16.49-9.13T38.26,8.5a2.5,2.5,0,0,0-1-2.13,4.8,4.8,0,0,0-2.89-.74q-4.4,0-9,3.57T20.67,15.6a2,2,0,0,0,.59,1.52,2.39,2.39,0,0,0,1.69.55,6.9,6.9,0,0,0,4-1.78,16.59,16.59,0,0,0,4-4.57l1.14.55a15.71,15.71,0,0,1-4.4,5.43,8.74,8.74,0,0,1-5.33,2.09,3.29,3.29,0,0,1-3.55-3.55q0-4.06,5.14-8A17.78,17.78,0,0,1,35,3.89a7.17,7.17,0,0,1,4.65,1.44,4.61,4.61,0,0,1,1.78,3.76q0,3.72-3.85,7.42A32.27,32.27,0,0,1,27,22.87Z"/><path d="M60.58,0H63L58.93,4.86a18.21,18.21,0,0,1,2.79-.68A17.13,17.13,0,0,1,64.38,4a21.86,21.86,0,0,1,5.5.91,21.2,21.2,0,0,0,4.65.91,6.14,6.14,0,0,0,3-.8,10.81,10.81,0,0,0,2.92-2.58h2q-12,12.73-22.6,24.94T39.53,51.87h-7.1L75.8,7.36a18.51,18.51,0,0,1-3.13,1,13.93,13.93,0,0,1-2.92.32,15.48,15.48,0,0,1-5.39-1.14,14.87,14.87,0,0,0-4-1.14A6,6,0,0,0,57,7.52a13.58,13.58,0,0,0-3.3,3.21H51.66Z"/></g></g></svg>