<svg xmlns="http://www.w3.org/2000/svg" viewBox="0 0 78.25 42.53"><title>アセット 26</title><g id="レイヤー_2" data-name="レイヤー 2"><g id="レイヤー_1-2" data-name="レイヤー 1"><path d="M27,19a5.24,5.24,0,0,1,3,1.71A5.55,5.55,0,0,1,31,24.14a11.15,11.15,0,0,1-2.2,6.3,24.61,24.61,0,0,1-6.3,6.09,33.64,33.64,0,0,1-8.31,4.38,23.88,23.88,0,0,1-8,1.63,7.46,7.46,0,0,1-4.52-1.25,4.1,4.1,0,0,1-.76-5.92,2.9,2.9,0,0,1,2.28-1.08,2.45,2.45,0,0,1,1.71.63,2.08,2.08,0,0,1,.7,1.61,2,2,0,0,1-1.4,2q-1.39.55-1.39.76,0,.72,1,1.14a6.55,6.55,0,0,0,2.58.42,15.2,15.2,0,0,0,6.76-2.05,33.52,33.52,0,0,0,7.61-5.56,34.93,34.93,0,0,0,5.12-6q2-3,2-4.52a1.73,1.73,0,0,0-.68-1.48,3.11,3.11,0,0,0-1.9-.51,8.91,8.91,0,0,0-2.66.53q-1.61.53-5.92,2.47l-.84-1.27q10.57-4.4,16.49-9.13t5.92-8.71a2.5,2.5,0,0,0-1-2.13,4.8,4.8,0,0,0-2.89-.74q-4.4,0-9,3.57t-4.65,6.41a2,2,0,0,0,.59,1.52,2.39,2.39,0,0,0,1.69.55,6.9,6.9,0,0,0,4-1.78,16.59,16.59,0,0,0,4-4.57L32,8a15.71,15.71,0,0,1-4.4,5.43,8.74,8.74,0,0,1-5.33,2.09,3.51,3.51,0,0,1-2.6-1,3.51,3.51,0,0,1-1-2.6q0-4.06,5.14-8A17.78,17.78,0,0,1,35,0a7.17,7.17,0,0,1,4.65,1.44A4.61,4.61,0,0,1,41.39,5.2q0,3.72-3.85,7.42A32.27,32.27,0,0,1,27,19Z"/><path d="M62.73,19a32.2,32.2,0,0,1,1.84,4.23A9.26,9.26,0,0,1,65.06,26q0,6-5.79,11.2T46.8,42.36a9.45,9.45,0,0,1-6.3-1.9,6.56,6.56,0,0,1-2.24-5.28q0-4.9,4.86-9t14.33-7.12a19.36,19.36,0,0,1-1.06-3,10.48,10.48,0,0,1-.34-2.54q0-5.16,4.54-9.3A15,15,0,0,1,71,.08a8.47,8.47,0,0,1,5.39,1.5,5.17,5.17,0,0,1,1.88,4.29q0,4.06-4,7.4T62.73,19Zm-4.48,1.65A34.86,34.86,0,0,0,45.4,26.91q-4.73,4-4.73,8.18a5.29,5.29,0,0,0,1.75,4.12,6.7,6.7,0,0,0,4.67,1.58,13.84,13.84,0,0,0,9.66-4q4.33-4,4.33-8.77a9,9,0,0,0-.63-3.11A25.25,25.25,0,0,0,58.25,20.63ZM62,17.5q7.4-2.41,10.61-5.14A8.26,8.26,0,0,0,75.8,5.88a4,4,0,0,0-1.35-3.13,5.33,5.33,0,0,0-3.64-1.18A10.89,10.89,0,0,0,63.37,4.5a8.75,8.75,0,0,0-3.3,6.66,10.16,10.16,0,0,0,.44,2.9A19.61,19.61,0,0,0,62,17.5Z"/></g></g></svg>