<svg xmlns="http://www.w3.org/2000/svg" viewBox="0 0 76.52 42.27"><title>アセット 28</title><g id="レイヤー_2" data-name="レイヤー 2"><g id="レイヤー_1-2" data-name="レイヤー 1"><path d="M35.76.42h6.47Q32.34,8.84,6.89,28.07l-1.35,1q2.11-.21,4-.32t3.55-.11q2,0,4.14.19t4.4.57l5-5.24q2.54-2.66,5.2-5.37h2.07q-2.24,2.62-4.44,5.37T25,29.72h.17a19.31,19.31,0,0,0,2.16.17,11.53,11.53,0,0,0,1.73-.15q1-.15,2.33-.49l.38,1.48a11.89,11.89,0,0,1-2.47.66,19.9,19.9,0,0,1-3.19.23L25,31.6l-1-.06q-1.9,2.58-3.63,5T17,41.3h-6.3q2.87-3.38,5-5.77t4.08-4.46a34,34,0,0,0-3.51-.51q-1.82-.17-3.93-.17A31.64,31.64,0,0,0,6,31a18.83,18.83,0,0,0-5,1.75L0,31.16Q8.62,24.77,17.65,17T35.76.42Z"/><path d="M36.19,36.36q0-5.28,3.7-12A52.37,52.37,0,0,1,50,11.63,51.42,51.42,0,0,1,61.57,3.25Q67.76,0,71.57,0a5.18,5.18,0,0,1,3.61,1.2,4.15,4.15,0,0,1,1.33,3.23q0,4.78-4,11.52A77.35,77.35,0,0,1,61.17,30.23,56.11,56.11,0,0,1,50.5,39.06q-5.22,3.21-8.77,3.21a5.33,5.33,0,0,1-4.1-1.54A6.18,6.18,0,0,1,36.19,36.36ZM71.32,1.82q-3.38,0-8.5,3.59a65.52,65.52,0,0,0-10.91,10.1,89.55,89.55,0,0,0-9.93,13q-3.64,6-3.64,9.07a3,3,0,0,0,.91,2.28,3.49,3.49,0,0,0,2.47.85q3.17,0,8-3.07A58.6,58.6,0,0,0,59.9,29.08,76.61,76.61,0,0,0,70.68,15.58q4.1-6.7,4.1-10.38a3.36,3.36,0,0,0-.89-2.52A3.55,3.55,0,0,0,71.32,1.82Z"/></g></g></svg>