<svg xmlns="http://www.w3.org/2000/svg" viewBox="0 0 94.34 74.78"><defs><style>.cls-1{fill:none;stroke:#000;stroke-miterlimit:10;}</style></defs><title>アセット 1</title><g id="レイヤー_2" data-name="レイヤー 2"><g id="デザイン"><path d="M38.11,10.61A10.84,10.84,0,0,1,36,17.37a8.78,8.78,0,0,1-5.65,3.42v.9a4.45,4.45,0,0,0,.85,3.15,4.4,4.4,0,0,0,3.12.85c.17,0,.43,0,.77,0s.59,0,.77,0,.46.1.46.32-.29.29-.87.4a17.24,17.24,0,0,1-3.25.29A4.94,4.94,0,0,1,28.07,25a5.47,5.47,0,0,1-.72-3.25v-1A10,10,0,0,1,23,18.53a10.38,10.38,0,0,1-3.33-8.09,12,12,0,0,1,1.16-5.21A9.51,9.51,0,0,1,24,1.45,8.25,8.25,0,0,1,28.77.09,8.34,8.34,0,0,1,34.37,2a10.28,10.28,0,0,1,2.75,3.79A11.91,11.91,0,0,1,38.11,10.61Zm-3.25.21q0-5.28-2-8.24A4.4,4.4,0,0,0,29,.58a5,5,0,0,0-4.49,2.57q-1.57,2.57-1.57,7.38t1.61,7.33a5.15,5.15,0,0,0,4.63,2.56,4.86,4.86,0,0,0,4.7-3.37A16.32,16.32,0,0,0,34.86,10.82Z"/><path d="M54.2,12.66c0,.12-.37.2-1.13.25-.48,0-.75.09-.81.23s0,.17-.12.46l-.2.84a9.3,9.3,0,0,1-1.59,3.35c.11.19.3.48.55.86a3,3,0,0,0,1,1.2,4.49,4.49,0,0,0,1.74.25c.35,0,.53.08.53.26s-.11.17-.32.17H49.62c-.1-.13-.34-.54-.72-1.22a6.31,6.31,0,0,1-4.3,1.43,5.39,5.39,0,0,1-3.4-1,3.16,3.16,0,0,1-1.32-2.63c0-1.74,1.2-3.15,3.62-4.23l-1-1a2.39,2.39,0,0,1-.79-1.71,2.77,2.77,0,0,1,1-2.18,3.88,3.88,0,0,1,2.6-.85,3.92,3.92,0,0,1,2.45.71,2.16,2.16,0,0,1,.94,1.81c0,1.24-.95,2.19-2.87,2.87l1,1c.79.85,1.83,2.05,3.1,3.6a7.3,7.3,0,0,0,1.34-3.86c0-.31-.13-.46-.38-.46h-.15a3.82,3.82,0,0,1-.55,0c-.63,0-1-.08-1-.23s.13-.16.4-.18,1.21,0,2.82,0h1.36C54.05,12.41,54.2,12.5,54.2,12.66Zm-5.65,6.08a36,36,0,0,0-4.7-5.49,3.57,3.57,0,0,0-1.65,3.06A3.92,3.92,0,0,0,43.12,19,3,3,0,0,0,45.47,20,4.33,4.33,0,0,0,48.55,18.74ZM46.78,9.83a2.82,2.82,0,0,0-.47-1.67,1.4,1.4,0,0,0-1.18-.65A1.71,1.71,0,0,0,43.88,8a1.63,1.63,0,0,0-.49,1.23c0,.91.69,1.9,2.08,3A2.35,2.35,0,0,0,46.78,9.83Z"/><path d="M73.14,20.34c0,.17-.15.25-.44.25a4.17,4.17,0,0,1-.52,0l-3.68-.11-3.68.11a3,3,0,0,1-.44,0c-.39,0-.58-.1-.58-.3s.26-.34.78-.34c1.71,0,2.56-.19,2.56-.51a1.89,1.89,0,0,0-.06-.23l-.24-.76L66.69,18c-.17-.6-.6-1.92-1.27-4h-6.2a31.29,31.29,0,0,0-1.74,5.33.44.44,0,0,0,.35.49c.05,0,.54.06,1.45.12.56,0,.84.12.84.29s-.25.29-.76.29c-.89,0-1.92,0-3.1-.12l-.9,0a4.43,4.43,0,0,0-.9.09,2.11,2.11,0,0,1-.37.05c-.27,0-.41-.09-.41-.26s.3-.27.91-.29a2.76,2.76,0,0,0,1.32-.28,1.64,1.64,0,0,0,.64-.94q3.73-10.71,6.07-17.2a3.76,3.76,0,0,1,.27-.77L63,.32c.06-.21.13-.32.23-.32s.11.06.15.17c.25.76.82,2.33,1.71,4.73L70.3,19a1.38,1.38,0,0,0,.59.84,4.2,4.2,0,0,0,1.49.21C72.89,20.09,73.14,20.18,73.14,20.34ZM65.25,13.4c-.31-.87-.83-2.31-1.56-4.31l-1.39-4q-1.21,3.2-2.92,8.33Z"/><path d="M4.65,72c0,1.46-1.15,1.86-2.32,1.86S0,73.45,0,72.33s1.26-1.58,2.56-1.58a8.34,8.34,0,0,1,1.19.08c-.11-2.2-.18-4-.19-6.33,0-.48,0-.66-.13-.8a.78.78,0,0,0-.5-.31,2.27,2.27,0,0,0-.3,0c-.08,0-.14,0-.14-.13a.19.19,0,0,1,.1-.17,1.24,1.24,0,0,1,.6-.21,2.07,2.07,0,0,1,1.12.44c.31.24.49.38.49.63a.49.49,0,0,1-.15.34.64.64,0,0,0-.2.46c0,.33,0,.88,0,1.12s.11.19.32.19a3.27,3.27,0,0,0,.8-.18,3,3,0,0,0,.9-.4,1,1,0,0,1,.68-.28c.49,0,.81.16.81.44s-.14.35-.35.44-.72.25-1.2.38a5.46,5.46,0,0,1-1.18.21,1.22,1.22,0,0,1-.8-.26A45.34,45.34,0,0,0,4.64,71a12.45,12.45,0,0,1,3.48,1.5.91.91,0,0,1,.51.7.49.49,0,0,1-.42.56,1.21,1.21,0,0,1-.65-.29,11.25,11.25,0,0,0-2.91-1.7Zm-2.11-.63c-1.1,0-2,.25-2,1s.53.84,1.61.84a1.71,1.71,0,0,0,1.33-.44,1.6,1.6,0,0,0,.32-1.2A6.65,6.65,0,0,0,2.54,71.36Z"/><path d="M19.56,63.08c.29.31.49.55.49.77a.48.48,0,0,1-.32.45,1.7,1.7,0,0,0-.49.3c-.42.35-1,.82-1.49,1.31s-1.33,1.33-1.8,1.88a.51.51,0,0,0-.18.35c0,.13.06.24.23.41l.62.53a22,22,0,0,1,3.15,3c.51.61.72,1,.72,1.31s-.26.7-.55.7-.38-.17-.62-.59a18.57,18.57,0,0,0-3.75-4.35,1.32,1.32,0,0,1-.52-.91,1.06,1.06,0,0,1,.32-.77c.4-.48.89-1,1.6-1.84.39-.43.84-.94,1.34-1.54.27-.32.4-.52.4-.7s-.2-.36-.54-.6c-.12-.1-.16-.11-.16-.17s.15-.15.35-.15A2,2,0,0,1,19.56,63.08Z"/><path d="M36.33,68a2.54,2.54,0,0,1,1.08,2.18c0,1.32-1.16,2.52-2.73,3.13a11.37,11.37,0,0,1-3.22.72c-.15,0-.24-.07-.24-.16s.07-.19.21-.21a9.79,9.79,0,0,0,3-1,3.52,3.52,0,0,0,1.91-2.69,2.13,2.13,0,0,0-.67-1.77,2.68,2.68,0,0,0-1.61-.65,16.79,16.79,0,0,1-2.73,3.38,6.18,6.18,0,0,0,.31.7,1.24,1.24,0,0,1,.1.4.34.34,0,0,1-.38.32c-.17,0-.31-.13-.48-.35a2.56,2.56,0,0,1-.24-.46A5.26,5.26,0,0,1,28,72.82c-.75,0-1-.52-1-1.19a4,4,0,0,1,1.68-2.83,8.3,8.3,0,0,1,1.63-1c0-.82.11-1.47.21-2.2a8.55,8.55,0,0,1-.93,0,1.89,1.89,0,0,1-1.72-.86.76.76,0,0,1-.14-.35.1.1,0,0,1,.1-.1.3.3,0,0,1,.19.1,1.81,1.81,0,0,0,1.49.54,7,7,0,0,0,1.12-.1c.05-.39.1-.64.14-1,0-.17,0-.35,0-.49s-.08-.35-.36-.49a1.45,1.45,0,0,0-.42-.11c-.09,0-.15-.07-.15-.14s.1-.14.19-.17a1.4,1.4,0,0,1,.56-.09,2,2,0,0,1,.94.33c.23.15.49.38.49.61a.4.4,0,0,1-.21.35c-.17.12-.26.35-.41,1.05A10.88,10.88,0,0,0,33.65,64a2,2,0,0,1,.7-.18c.26,0,.54.14.54.39s-.08.28-.28.38a8.81,8.81,0,0,1-1.51.52c-.58.15-1.18.29-1.89.42a15.19,15.19,0,0,0-.27,2,9.58,9.58,0,0,1,2.37-.46.59.59,0,0,0,0-.23.66.66,0,0,0-.46-.55c-.1,0-.13-.09-.13-.14s.13-.14.31-.14a1.49,1.49,0,0,1,1,.55.58.58,0,0,1,.18.32,1.09,1.09,0,0,1,0,.23A4,4,0,0,1,36.33,68Zm-6.1.4c-1.05.56-2.47,1.84-2.47,3,0,.45.14.59.38.59a4.24,4.24,0,0,0,2.3-1.11A10.31,10.31,0,0,1,30.23,68.36Zm.85,1.92a11.65,11.65,0,0,0,2.1-2.77A8.47,8.47,0,0,0,30.9,68,8.64,8.64,0,0,0,31.08,70.28Z"/><path d="M44.1,68.78A4.85,4.85,0,0,1,47,67.68c2.06,0,3.2,1.29,3.2,2.8,0,2.11-1.91,3.3-4,3.3-1.52,0-2.6-.63-2.6-1.58,0-.75.63-1.16,1.4-1.16a2.68,2.68,0,0,1,2.35,1.79,2.51,2.51,0,0,0,1.77-2.42A2.06,2.06,0,0,0,47,68.18a4.49,4.49,0,0,0-3.16,1.43,12,12,0,0,0-1.1,1.23.45.45,0,0,1-.35.18.52.52,0,0,1-.5-.54A.7.7,0,0,1,42.1,70c1.08-1.16,2.24-2.36,3.25-3.6.6-.74,1.17-1.44,1.87-2.36.1-.13.06-.16,0-.16a2.08,2.08,0,0,0-.26.07c-.63.21-1.35.48-1.91.7a1,1,0,0,0-.47.3.55.55,0,0,1-.38.15,1.11,1.11,0,0,1-.7-.4,1.62,1.62,0,0,1-.51-1c0-.14.09-.29.17-.29s.11,0,.18.15c.31.41.51.55.75.55a3.44,3.44,0,0,0,.73-.1c.63-.15,1.21-.32,1.84-.53a.91.91,0,0,0,.42-.25.45.45,0,0,1,.33-.14,2,2,0,0,1,.88.43c.28.2.42.38.42.6s-.11.24-.36.3-.27.1-.58.4c-.46.47-1,1.07-1.86,2-.52.61-1.28,1.34-1.84,2Zm.8,2.69a.68.68,0,0,0-.77.65c0,.57.74,1,1.86,1a2.67,2.67,0,0,0,.56,0A2.06,2.06,0,0,0,44.9,71.47Z"/><path d="M56.64,68.92a.51.51,0,0,1,0,.2,2.51,2.51,0,0,0-.17.92,1.43,1.43,0,0,0,.9,1.38,5.39,5.39,0,0,0,2.54.46,8.06,8.06,0,0,0,2.39-.3,2.84,2.84,0,0,1,.86-.12c.51,0,.89.24.89.6s-.29.51-.8.58a21.4,21.4,0,0,1-3.12.22,6.85,6.85,0,0,1-2.65-.45,2.25,2.25,0,0,1-1.52-2.13,2.34,2.34,0,0,1,.37-1.34.24.24,0,0,1,.19-.14C56.56,68.8,56.64,68.85,56.64,68.92Zm.91-3.58a2.17,2.17,0,0,1-.88-.69.25.25,0,0,1-.05-.17.14.14,0,0,1,.14-.15.37.37,0,0,1,.18.07,2.67,2.67,0,0,0,.94.36,5.12,5.12,0,0,0,1,.09,9.32,9.32,0,0,0,1.33-.13,7.64,7.64,0,0,0,1.25-.28,1.87,1.87,0,0,1,.41-.1,2.05,2.05,0,0,1,.5.07c.35.12.46.3.46.55s-.16.41-.64.45a9.25,9.25,0,0,0-1.95.33A10.51,10.51,0,0,0,58,67.13a.76.76,0,0,1-.31.13.22.22,0,0,1-.15-.16.53.53,0,0,1,.15-.22l1.43-1.26A3.87,3.87,0,0,1,57.55,65.34ZM63.31,63a3.36,3.36,0,0,1,1.22.7c.34.3.53.55.53.85a.39.39,0,0,1-.39.42c-.18,0-.34-.13-.46-.38A4.85,4.85,0,0,0,63,63.22c-.05,0-.1-.09-.1-.14a.15.15,0,0,1,.16-.14A1,1,0,0,1,63.31,63Zm1.22-.93a3.11,3.11,0,0,1,1.12.54c.34.24.65.56.65.88a.4.4,0,0,1-.38.45c-.18,0-.3-.07-.45-.33a4.16,4.16,0,0,0-1.29-1.32.16.16,0,0,1-.1-.14.14.14,0,0,1,.14-.14A1.8,1.8,0,0,1,64.53,62.05Z"/><path d="M72.63,64.3c.42-.53.52-.6.61-.6s.19.07.68.46c.2.16.28.27.28.35s0,.14-.19.14H72.27v.72c0,.43,0,.77,0,.86,0,.28-.18.4-.59.4s-.37-.09-.37-.33c0-.08,0-.36,0-1v-.7H69.78a4.27,4.27,0,0,1-.31,1.16,3.49,3.49,0,0,1-1.59,1.69c-.07,0-.19-.1-.14-.16a3.76,3.76,0,0,0,1-1.92,8.28,8.28,0,0,0,.15-1.71,9.09,9.09,0,0,0,0-1.13,6.09,6.09,0,0,1,1,.49,8.39,8.39,0,0,0,2-.73,2.93,2.93,0,0,0,.67-.5c.84.56,1,.74,1,.88s-.14.18-.65.07a11,11,0,0,1-3.05.59v.29a6.22,6.22,0,0,1,0,.63ZM68.11,74.46A10.77,10.77,0,0,0,71,73.22a3.55,3.55,0,0,0,.92-.77c.83.42,1.25.7,1.25.86s-.21.21-.71.17a11,11,0,0,1-4.29,1.16C68.07,74.65,68,74.48,68.11,74.46Zm7.3-9.81a2.68,2.68,0,0,1-.24.74,3.07,3.07,0,0,1-1.54,1.33c-.07,0-.16-.07-.1-.12a3.29,3.29,0,0,0,.91-1.5,5.94,5.94,0,0,0,.14-1.47,9.23,9.23,0,0,0-.06-1,6,6,0,0,1,1,.51,15.68,15.68,0,0,0,2.08-.79,3.11,3.11,0,0,0,.64-.47c.83.56,1,.74,1,.88s-.16.18-.65.07a12.29,12.29,0,0,1-3.16.61v.34c0,.21,0,.39,0,.56h3.42c.49-.62.59-.67.68-.67s.19,0,.75.5c.22.19.29.3.29.38s0,.14-.18.14H77.94v.58c0,.4,0,.81,0,.92s-.13.36-.43.39a2.14,2.14,0,0,1,.57.41c.21.18.28.25.28.34s-.07.18-.38.4v1.12c0,2.07,0,3.06,0,3.36s-.19.42-.64.42c-.28,0-.41-.08-.41-.32v-.1H71.12c0,.3-.2.42-.62.42s-.43-.09-.43-.37.06-1,.06-3.25c0-1.18,0-1.8-.07-2.51a6.51,6.51,0,0,1,1.2.56h5.63c.32-.34.44-.45.52-.48h0c-.26,0-.38-.1-.38-.33,0-.07,0-.41,0-1,0-.16,0-.36,0-.6ZM77,67.37H71.12v1.22H77Zm-5.88,2.76H77V68.94H71.12Zm0,1.69H77V70.48H71.12Zm6.77,2.58a7.69,7.69,0,0,0-2.82-1.57c-.07,0,0-.15,0-.15,2.57.17,3.91.74,3.91,1.58a.5.5,0,0,1-.48.52C78.33,74.78,78.18,74.68,77.89,74.4Z"/><path d="M83.31,67.23c0,4.54,0,5.9,0,7,0,.29-.21.43-.65.43s-.45-.11-.45-.36c0-.93.08-2.58.08-6.75,0-2.85,0-4.23-.09-5.54a6.5,6.5,0,0,1,1.19.56h2.75c.42-.46.49-.51.57-.51s.17.05.62.43c.21.17.26.25.26.34s-.07.19-.37.37v.89c0,1.62,0,2.39,0,2.62s-.23.42-.62.42-.39-.12-.39-.35v-.2h-3Zm3-4.32h-3v1.43h3Zm-3,3.31h3V64.69h-3Zm3.06,6.22c0,.32-.18.45-.58.45s-.43-.1-.43-.34,0-.68,0-2.16c0-1,0-1.56-.07-2.32a7.18,7.18,0,0,1,1.15.56h3.1c.4-.45.49-.49.57-.49s.17,0,.6.41c.2.16.24.23.24.32s-.06.18-.36.39V70c0,1.4,0,2.1,0,2.3s-.21.43-.58.43-.42-.1-.42-.36v-.54H86.37ZM89.65,69H86.37v2.47h3.28Zm.16-2.27c0,.29-.18.42-.56.42s-.42-.1-.42-.35c0-.41,0-1,0-2.84A17.62,17.62,0,0,0,88.8,62a9.27,9.27,0,0,1,1.14.56h2.9c.43-.46.5-.51.59-.51s.17.05.63.44c.22.19.28.26.28.35s-.07.19-.38.37v3.14c0,6.45,0,6.76,0,7.14a.86.86,0,0,1-.45.85,1.4,1.4,0,0,1-.85.23c-.15,0-.21,0-.24-.2-.05-.45-.32-.6-1.47-.87-.07,0-.07-.16,0-.16,1,.07,1.3.09,1.77.09.17,0,.21-.05.21-.22V66.57H89.81Zm3.13-3.8H89.81v1.43h3.13Zm-3.13,3.31h3.13V64.69H89.81Z"/><line class="cls-1" x1="25.13" y1="42.7" x2="65.13" y2="42.7"/></g></g></svg>