<?xml version="1.0" standalone="no"?>
<!DOCTYPE svg PUBLIC "-//W3C//DTD SVG 20010904//EN"
 "http://www.w3.org/TR/2001/REC-SVG-20010904/DTD/svg10.dtd">
<svg version="1.0" xmlns="http://www.w3.org/2000/svg"
 width="260.000000pt" height="260.000000pt" viewBox="0 0 260.000000 260.000000"
 preserveAspectRatio="xMidYMid meet">
<metadata>
Created by potrace 1.11, written by Peter Selinger 2001-2013
</metadata>
<g transform="translate(0.000000,260.000000) scale(0.100000,-0.100000)"
fill="#000000" stroke="none">
<path d="M410 1737 c-103 -36 -171 -87 -233 -174 -66 -91 -82 -150 -81 -283 1
-108 21 -170 80 -253 63 -87 129 -136 234 -173 64 -23 69 -23 520 -21 503 3
484 0 592 70 135 87 205 208 213 372 11 201 -105 380 -295 457 -54 23 -63 23
-510 25 -448 2 -456 2 -520 -20z"/>
<path d="M1825 1681 c-3 -2 -5 -188 -5 -413 l1 -408 59 0 60 0 2 316 3 317
200 -316 200 -317 63 0 62 0 -2 412 -3 413 -55 0 -55 0 -3 -314 -2 -314 -196
309 c-108 170 -198 311 -200 313 -5 6 -124 8 -129 2z"/>
</g>
</svg>
