<svg xmlns="http://www.w3.org/2000/svg" viewBox="0 0 52.8 50.9"><defs><style>.cls-1{fill:#7c7c7c;}.cls-2{fill:none;stroke:#7c7c7c;stroke-miterlimit:10;stroke-width:3px;}</style></defs><title>icon_menu-trigger</title><g id="レイヤー_2" data-name="レイヤー 2"><g id="レイヤー_1-2" data-name="レイヤー 1"><g id="デザイン"><path class="cls-1" d="M13.1,50.5c0,.1-.1.2-.4.2H8.3c-.3,0-.4-.1-.4-.2s.2-.2.5-.2a1.389,1.389,0,0,0,1.1-.2,4.869,4.869,0,0,0,.1-1.2V39.6a3.224,3.224,0,0,0-.2.6c-.5,1.5-1.2,3.6-2.1,6.5l-.8,2.9c-.2.6-.3.8-.4.8s-.2-.1-.3-.4c-.3-1.1-1.3-3.8-2.9-8.2l-.7-1.9V50c.1.2.4.2.9.2s.7.1.6.2c0,.1-.1.2-.4.2H2.4l-2.1.1c-.2,0-.3-.1-.3-.2s.3-.2,1-.2c.3,0,.5,0,.5-.1a2.769,2.769,0,0,0,.1-.9V39a.319.319,0,0,0-.3-.3,3.4,3.4,0,0,0-1-.1c-.2,0-.3-.1-.3-.2s.2-.2.5-.2H3.3l1,2.8c.3.7,1,2.8,2.3,6.3.2-.8.5-1.5.7-2.3l2-5.9.3-.9H13c.1,0,.1.1.1.2s-.1.2-.3.2h-.7a.864.864,0,0,0-.6.3,14.769,14.769,0,0,0-.1,2.1v8.4c0,.5,0,.8.1.8a5.019,5.019,0,0,0,1.2.2h.1C13,50.3,13.1,50.4,13.1,50.5Z"/><path class="cls-1" d="M25.2,47.7v3c-1.2-.1-3.5-.1-7-.1H15.9c-.2,0-.3-.1-.3-.2s0-.1.1-.1h.7a.845.845,0,0,0,.6-.2,2.485,2.485,0,0,0,.1-.8V39.1c0-.3,0-.6-.1-.6a3.4,3.4,0,0,0-1-.1c-.2,0-.3,0-.3-.2s.1-.2.4-.2h7.6a3.4,3.4,0,0,0,1-.1c0,.5.1,1.2.2,2.1l.1.8V41c0,.1,0,.2-.2.2s-.2-.2-.3-.5a3.327,3.327,0,0,0-1.1-2.1,7.687,7.687,0,0,0-3-.3H18.9v5.3h.4a5.4,5.4,0,0,0,2.5-.3q.45-.3.6-1.8c0-.3.1-.4.2-.4s.2.1.2.3v2a17.9,17.9,0,0,0,.1,2.7v.3c0,.2-.1.2-.2.2s-.1,0-.2-.2a2.245,2.245,0,0,1-.1-1,1.424,1.424,0,0,0-.9-1.3,9.7,9.7,0,0,0-1.7-.1H19v6a23.634,23.634,0,0,0,4.6-.2c.8-.2,1.2-.9,1.4-2.3,0-.3.1-.4.2-.4C25.1,47.3,25.2,47.5,25.2,47.7Z"/><path class="cls-1" d="M38.9,38.3c0,.1-.1.2-.5.2h-.7c-.2,0-.3,0-.3.1,0,.2-.1.4,0,.6V50.7c0,.1,0,.2-.1.2a.215.215,0,0,1-.2-.2l-2.3-3.4c-1.3-2-3-4.4-4.9-7.3V50a.265.265,0,0,0,.3.3,4.869,4.869,0,0,0,1.2.1c.2,0,.2,0,.2.1s-.2.2-.5.2H28c-.3,0-.4-.1-.4-.2s.1-.2.4-.2a4.869,4.869,0,0,0,1.2-.1c.1-.1.2-.3.2-.8V40.6c0-1-.2-1.6-.6-1.9a3.553,3.553,0,0,0-1-.2c-.3,0-.5-.1-.5-.2s.1-.2.3-.2h3.1l6.2,9.3V38.7c0-.1-.1-.1-.1-.2a2.769,2.769,0,0,0-.9-.1c-.4,0-.7-.1-.7-.2s.1-.2.4-.2h2.9C38.8,38.1,38.9,38.2,38.9,38.3Z"/><path class="cls-1" d="M52.8,38.3c0,.1-.1.2-.3.2h-.6c-.3,0-.5.1-.5.2v7.1a5.759,5.759,0,0,1-1,3.8,3.818,3.818,0,0,1-3.2,1.2,4.331,4.331,0,0,1-3.7-1.5,6.152,6.152,0,0,1-.7-3.3V38.8a.43.43,0,0,0-.4-.4h-.7c-.2,0-.3-.1-.3-.2a.215.215,0,0,1,.2-.2h4c.2,0,.3.1.3.2s0,.1-.1.1h-1a.215.215,0,0,0-.2.2v7.4a4.553,4.553,0,0,0,.8,3.2,3.1,3.1,0,0,0,2.2.9c1.8,0,2.9-1,3.1-3.1V39a.51.51,0,0,0-.4-.5h-.7c-.2,0-.4-.1-.4-.2a.215.215,0,0,1,.2-.2h2.9C52.6,38.1,52.8,38.2,52.8,38.3Z"/><line class="cls-2" x1="2.3" y1="1.5" x2="51.3" y2="1.5"/><line class="cls-2" x1="2.3" y1="13.5" x2="51.3" y2="13.5"/><line class="cls-2" x1="2.3" y1="25.5" x2="51.3" y2="25.5"/></g></g></g></svg>